<mxfile host="app.diagrams.net" modified="2023-12-11T09:44:37.444Z" agent="Mozilla/5.0 (Windows NT 10.0; Win64; x64) AppleWebKit/537.36 (KHTML, like Gecko) Chrome/119.0.0.0 Safari/537.36" etag="fj1PJbY0pFgoVIBa41U5" version="22.1.7" type="github">
  <diagram name="Page-1" id="cwoU_8MwpMIjcC__q6qh">
    <mxGraphModel dx="889" dy="821" grid="1" gridSize="10" guides="1" tooltips="1" connect="1" arrows="1" fold="1" page="1" pageScale="1" pageWidth="850" pageHeight="1100" math="0" shadow="0">
      <root>
        <mxCell id="0" />
        <mxCell id="1" parent="0" />
        <mxCell id="REBhrvAs2Bosw9O1GTWI-1" value="Webhook in K8s" style="rounded=1;whiteSpace=wrap;html=1;" vertex="1" parent="1">
          <mxGeometry x="170" y="330" width="120" height="50" as="geometry" />
        </mxCell>
        <mxCell id="REBhrvAs2Bosw9O1GTWI-2" value="admission webhook" style="rounded=1;whiteSpace=wrap;html=1;fillColor=#dae8fc;strokeColor=#6c8ebf;" vertex="1" parent="1">
          <mxGeometry x="380" y="250" width="130" height="60" as="geometry" />
        </mxCell>
        <mxCell id="REBhrvAs2Bosw9O1GTWI-3" value="authorization webhook" style="rounded=1;whiteSpace=wrap;html=1;" vertex="1" parent="1">
          <mxGeometry x="380" y="340" width="130" height="60" as="geometry" />
        </mxCell>
        <mxCell id="REBhrvAs2Bosw9O1GTWI-4" value="CRD conversion webhook" style="rounded=1;whiteSpace=wrap;html=1;fillColor=#dae8fc;strokeColor=#6c8ebf;" vertex="1" parent="1">
          <mxGeometry x="380" y="430" width="130" height="60" as="geometry" />
        </mxCell>
        <mxCell id="REBhrvAs2Bosw9O1GTWI-5" value="&lt;b&gt;Compiled-in&lt;br&gt;&lt;/b&gt;( Admission controller)" style="rounded=1;whiteSpace=wrap;html=1;" vertex="1" parent="1">
          <mxGeometry x="1020" y="250" width="150" height="60" as="geometry" />
        </mxCell>
        <mxCell id="REBhrvAs2Bosw9O1GTWI-6" value="admission plugins" style="rounded=1;whiteSpace=wrap;html=1;" vertex="1" parent="1">
          <mxGeometry x="740" y="140" width="120" height="60" as="geometry" />
        </mxCell>
        <mxCell id="REBhrvAs2Bosw9O1GTWI-8" value="&lt;h1 style=&quot;line-height: 30%;&quot;&gt;&lt;br&gt;&lt;/h1&gt;&lt;h1 style=&quot;line-height: 30%;&quot;&gt;HTTP callback&lt;/h1&gt;&lt;p style=&quot;line-height: 30%;&quot;&gt;- Receive admission requests&lt;/p&gt;&lt;p style=&quot;line-height: 30%;&quot;&gt;- 2 Types&lt;/p&gt;&lt;p style=&quot;line-height: 30%;&quot;&gt;&amp;nbsp; &amp;nbsp; - validating admission webhook&lt;/p&gt;&lt;p style=&quot;line-height: 30%;&quot;&gt;&amp;nbsp; &amp;nbsp; - mutating admission webhook&lt;/p&gt;" style="text;html=1;strokeColor=#d6b656;fillColor=#fff2cc;spacing=5;spacingTop=-20;whiteSpace=wrap;overflow=hidden;rounded=0;" vertex="1" parent="1">
          <mxGeometry x="330" y="40" width="220" height="130" as="geometry" />
        </mxCell>
        <mxCell id="REBhrvAs2Bosw9O1GTWI-9" value="" style="endArrow=none;html=1;rounded=0;entryX=0.5;entryY=1;entryDx=0;entryDy=0;exitX=0.578;exitY=-0.027;exitDx=0;exitDy=0;exitPerimeter=0;" edge="1" parent="1" source="REBhrvAs2Bosw9O1GTWI-2" target="REBhrvAs2Bosw9O1GTWI-8">
          <mxGeometry width="50" height="50" relative="1" as="geometry">
            <mxPoint x="400" y="450" as="sourcePoint" />
            <mxPoint x="450" y="400" as="targetPoint" />
          </mxGeometry>
        </mxCell>
        <mxCell id="REBhrvAs2Bosw9O1GTWI-10" value="&lt;b&gt;Dynamic admission webhook&lt;/b&gt;&lt;br&gt;Extension, run as webhooks configured at runtime" style="rounded=1;whiteSpace=wrap;html=1;" vertex="1" parent="1">
          <mxGeometry x="620" y="250" width="200" height="60" as="geometry" />
        </mxCell>
        <mxCell id="REBhrvAs2Bosw9O1GTWI-12" value="" style="endArrow=none;html=1;rounded=0;exitX=0.625;exitY=1.053;exitDx=0;exitDy=0;entryX=0.5;entryY=0;entryDx=0;entryDy=0;exitPerimeter=0;" edge="1" parent="1" source="REBhrvAs2Bosw9O1GTWI-6" target="REBhrvAs2Bosw9O1GTWI-5">
          <mxGeometry width="50" height="50" relative="1" as="geometry">
            <mxPoint x="705" y="280" as="sourcePoint" />
            <mxPoint x="705" y="230" as="targetPoint" />
          </mxGeometry>
        </mxCell>
        <mxCell id="REBhrvAs2Bosw9O1GTWI-13" value="" style="endArrow=none;html=1;rounded=0;exitX=0.625;exitY=1;exitDx=0;exitDy=0;exitPerimeter=0;" edge="1" parent="1" source="REBhrvAs2Bosw9O1GTWI-6" target="REBhrvAs2Bosw9O1GTWI-10">
          <mxGeometry width="50" height="50" relative="1" as="geometry">
            <mxPoint x="860" y="150" as="sourcePoint" />
            <mxPoint x="675" y="410" as="targetPoint" />
          </mxGeometry>
        </mxCell>
        <mxCell id="REBhrvAs2Bosw9O1GTWI-19" value="" style="endArrow=none;dashed=1;html=1;dashPattern=1 3;strokeWidth=2;rounded=0;exitX=1;exitY=0.5;exitDx=0;exitDy=0;" edge="1" parent="1" source="REBhrvAs2Bosw9O1GTWI-2" target="REBhrvAs2Bosw9O1GTWI-10">
          <mxGeometry width="50" height="50" relative="1" as="geometry">
            <mxPoint x="560" y="440" as="sourcePoint" />
            <mxPoint x="610" y="390" as="targetPoint" />
          </mxGeometry>
        </mxCell>
        <mxCell id="REBhrvAs2Bosw9O1GTWI-20" value="" style="endArrow=none;html=1;rounded=0;entryX=0;entryY=0.5;entryDx=0;entryDy=0;exitX=1;exitY=0.5;exitDx=0;exitDy=0;" edge="1" parent="1" source="REBhrvAs2Bosw9O1GTWI-1" target="REBhrvAs2Bosw9O1GTWI-2">
          <mxGeometry width="50" height="50" relative="1" as="geometry">
            <mxPoint x="230" y="510" as="sourcePoint" />
            <mxPoint x="280" y="460" as="targetPoint" />
          </mxGeometry>
        </mxCell>
        <mxCell id="REBhrvAs2Bosw9O1GTWI-21" value="" style="endArrow=none;html=1;rounded=0;entryX=0;entryY=0.5;entryDx=0;entryDy=0;exitX=1;exitY=0.5;exitDx=0;exitDy=0;" edge="1" parent="1" source="REBhrvAs2Bosw9O1GTWI-1" target="REBhrvAs2Bosw9O1GTWI-3">
          <mxGeometry width="50" height="50" relative="1" as="geometry">
            <mxPoint x="220" y="560" as="sourcePoint" />
            <mxPoint x="270" y="510" as="targetPoint" />
          </mxGeometry>
        </mxCell>
        <mxCell id="REBhrvAs2Bosw9O1GTWI-22" value="" style="endArrow=none;html=1;rounded=0;entryX=-0.02;entryY=0.4;entryDx=0;entryDy=0;entryPerimeter=0;exitX=1;exitY=0.5;exitDx=0;exitDy=0;" edge="1" parent="1" source="REBhrvAs2Bosw9O1GTWI-1" target="REBhrvAs2Bosw9O1GTWI-4">
          <mxGeometry width="50" height="50" relative="1" as="geometry">
            <mxPoint x="220" y="520" as="sourcePoint" />
            <mxPoint x="270" y="470" as="targetPoint" />
          </mxGeometry>
        </mxCell>
        <mxCell id="REBhrvAs2Bosw9O1GTWI-23" value="a piece of code &lt;br&gt;- &lt;b&gt;intercepts &lt;/b&gt;requests to the K8s API server prior to persistence of the object&amp;nbsp;&lt;br&gt;&lt;br&gt;- validating / mutating&amp;nbsp;&lt;br&gt;&lt;br&gt;- Limit requests to create/delete/modify object&lt;br&gt;- Complied into the kube-server binary&lt;br&gt;- Only be configured by the cluster administrator" style="text;html=1;strokeColor=#d79b00;fillColor=#ffe6cc;align=left;verticalAlign=middle;whiteSpace=wrap;rounded=0;" vertex="1" parent="1">
          <mxGeometry x="980" y="360" width="240" height="180" as="geometry" />
        </mxCell>
        <mxCell id="REBhrvAs2Bosw9O1GTWI-24" value="ValidatingAdmissionWebhook" style="rounded=1;whiteSpace=wrap;html=1;" vertex="1" parent="1">
          <mxGeometry x="560" y="440" width="180" height="80" as="geometry" />
        </mxCell>
        <mxCell id="REBhrvAs2Bosw9O1GTWI-25" value="MutatingAdmissionWebhook" style="rounded=1;whiteSpace=wrap;html=1;" vertex="1" parent="1">
          <mxGeometry x="760" y="440" width="180" height="80" as="geometry" />
        </mxCell>
        <mxCell id="REBhrvAs2Bosw9O1GTWI-26" value="" style="endArrow=none;html=1;rounded=0;entryX=0.5;entryY=1;entryDx=0;entryDy=0;" edge="1" parent="1" source="REBhrvAs2Bosw9O1GTWI-23" target="REBhrvAs2Bosw9O1GTWI-5">
          <mxGeometry width="50" height="50" relative="1" as="geometry">
            <mxPoint x="750" y="450" as="sourcePoint" />
            <mxPoint x="800" y="400" as="targetPoint" />
          </mxGeometry>
        </mxCell>
        <mxCell id="REBhrvAs2Bosw9O1GTWI-28" value="" style="endArrow=none;html=1;rounded=0;exitX=0.454;exitY=0.035;exitDx=0;exitDy=0;exitPerimeter=0;entryX=0.5;entryY=1;entryDx=0;entryDy=0;" edge="1" parent="1" source="REBhrvAs2Bosw9O1GTWI-25" target="REBhrvAs2Bosw9O1GTWI-10">
          <mxGeometry width="50" height="50" relative="1" as="geometry">
            <mxPoint x="750" y="450" as="sourcePoint" />
            <mxPoint x="800" y="400" as="targetPoint" />
          </mxGeometry>
        </mxCell>
        <mxCell id="REBhrvAs2Bosw9O1GTWI-29" value="" style="endArrow=none;html=1;rounded=0;entryX=0.5;entryY=1;entryDx=0;entryDy=0;" edge="1" parent="1" source="REBhrvAs2Bosw9O1GTWI-24" target="REBhrvAs2Bosw9O1GTWI-10">
          <mxGeometry width="50" height="50" relative="1" as="geometry">
            <mxPoint x="550" y="390" as="sourcePoint" />
            <mxPoint x="600" y="340" as="targetPoint" />
          </mxGeometry>
        </mxCell>
        <mxCell id="REBhrvAs2Bosw9O1GTWI-31" value="Essentially part of the cluster control-plane&lt;br&gt;" style="text;html=1;strokeColor=#82b366;fillColor=#d5e8d4;align=center;verticalAlign=middle;whiteSpace=wrap;rounded=0;" vertex="1" parent="1">
          <mxGeometry x="580" y="70" width="180" height="60" as="geometry" />
        </mxCell>
        <mxCell id="REBhrvAs2Bosw9O1GTWI-32" value="" style="endArrow=none;html=1;rounded=0;entryX=0.5;entryY=1;entryDx=0;entryDy=0;exitX=0.663;exitY=-0.053;exitDx=0;exitDy=0;exitPerimeter=0;" edge="1" parent="1" source="REBhrvAs2Bosw9O1GTWI-2" target="REBhrvAs2Bosw9O1GTWI-31">
          <mxGeometry width="50" height="50" relative="1" as="geometry">
            <mxPoint x="610" y="200" as="sourcePoint" />
            <mxPoint x="660" y="150" as="targetPoint" />
          </mxGeometry>
        </mxCell>
        <mxCell id="REBhrvAs2Bosw9O1GTWI-33" value="" style="shape=image;verticalLabelPosition=bottom;labelBackgroundColor=default;verticalAlign=top;aspect=fixed;imageAspect=0;image=data:image/png,iVBORw0KGgoAAAANSUhEUgAAAcgAAACbCAYAAADmzAsHAAAAAXNSR0IArs4c6QAAAARnQU1BAACxjwv8YQUAAAAJcEhZcwAAEnQAABJ0Ad5mH3gAAELxSURBVHhe7b1/UFVXmu/95TVdkkrmQusQaK2IWhVRHDjOndtgKkewZt7gjwRyTQa6cDxmZlq0EuHWVDV0hQv2Hy1cUsGu7ho0qQCdmetxsDz06A0kSnRyW/BYV+g7NxxpUUyViF0akGsa3+5UH6tj+T7rxz5n7302cA7yS/N8rO05e+119tp7rb3Xdz3PszY7LhgMPgDDMAzDMBb+H/3JMAzDMIwJFkiGYRiGcYAFkmEYhmEcYIFkGIZhGAdYIBmGYRjGARZIhmEYhnGABZJhGIZhHGCBZBiGYRgHWCAZhmEYxgEWSIZhGIZxgAWSYRiGYRxggWQYhmEYB1ggGYZhGMYBFkiGYRiGcYAFkomN0RPYnZ6OuoBej5lRnNidjvSH2keM6GNOT6/DbBU5JwTqsHYtnefuE7j9GL/ELlC3Vl4/u4/f1ilzDNV7evpunBjV6/OQQJ2653ZP90HKa25+n/vDMLcCOdKGkvpUxL+dj4b+oE58lBhGW2MmUt9OQ/6/BvAongHDRBJA3Ux0phNCZa5dK8vkF9Q+OgROeoEdb2Jbkk54zJinFmQADfXxJJzxKD07ptMMgug6rLblfXxdpzGPDknY1tiP/v5+VLp00kyTtA2NVF5/fyVmq8g5wVWJS5foPBu34Zk4nfYY4qq8JK+fxlef0SmPDob1G15mx6vhqlT3XON0KtnoCRwS+rjlIe4q2sce4fUgC/z4PHR7zK1AJhegqWIIwbfaUZYerxMFLmQtTZbfmq/2wCqRAXTfEp+ZePm5VJkyd6SgYPdFDL01gPbXXDCfAcMwTBgVWige3I9OOVgTSydqNxxBMYlk74NHz24e9XfADw+mpo9UH3tosFAFvFHj1mnzj6gFcrijSFpt4SUNOY31aLtmciz21attLV0Y/qwBHuk+jUdaQzl8pnzDHYWm/ailvk9v1GRnlEJK5JencdHsuyTBbBWfCzzIWaWHyV8Po+vDUuTr8lLr81HeMYDfqq0SUeaTtK2wYxgPfh9A03tpcl0c2yc3TRenbV/xb+eg5Fgnhr/W2wUjPhTKbaalpVtvtDL8WRNKG4QbVuTTdXbVJPkT1NnpmzqPBeX+St99nC6xhyEcCzQWZ/eWLs9YcqvopggjYxt1ARoI7lbbRWAxFPMzxxnt5U0QtzD9Xi3Oo+zRE3tMeWip69VbNPb9TFRnk5Upt6tjNuI5ap8nrPs0xaMs+ZzOwYgZGnmosiL7ych2MpZQe0W1H0VknYWPKtSG6cUgwwD+qlxLXrPLVeUV52Q7Pnt9iO2iIzTvxxQ7FPtZK9OpTDpoUaZa13mNcyTs1ldd7zgnab9mHa4147pV7RrOa6qOhyJcz7rdR/04RTeO581tCNtwSdj25g76HMS1iOMbv85iwXoNTnR+k9eZlQCaq/1w1+6CK85wV+hrwek+o3oWlqLRnoG6XJza/Evp7ViK+evueAgLcgg9X+5DkY868js6yeCGB9mfVKD1/ohcHfrqIHb6StCmVqPjuWwamwha0f25/CIJ9HlxkT4zV+Zod9kQfE3rkXe5GWd0eSP3z+BgrwuvHOt1iAuO4EzLKyi7OyQbShzbK74mDMhtw2hrysYm076AHngHN6Hs30hYdUq0DHWIeihD81dXqVSZourseAENCGxH5lBnBce99AsbgZOy84IYvU14AU9MoK4aqDVGsrQc9cjOaY/5RpSdRzEGazvD+TprETHeGzyEqit75T7gPYTdVaewpZNGx5TRe9K4I8OuVZlvPMSNtJGGlVTmpVCZq3HI1umLjnVj1QPKpvPQ0rn6PdkBhLKFXKv9EEWOdxvKzoyEf8XR8L6Oerw0srd3En5U5abj0GqjPo7C469CbkSvo/IV46jOJ+qC9mcSD1lm8SD2/1K5C+W+vMVY+7ZZ5IW4bEQVanFWuE4pX2ftBrnF03JJusvkORmuVWmRjN/ZONfZoVCnmbStUafTsdC629zutES650QdUUe3Zfz6CNRRW9b8Orwfaojz+zaGOkpRpmpn+i11tKLMULvTEjpHwnCtOl6DBnKwYL1mKbtsj4hmovpOz72CvaF8bkqaTBgmR9XzOX0uVrf+oE0JR6+JMNEKrDRVrRC17d4dOKqPSyx7B/ZN6bgM1+pkdSYGKFHVmQH1Q0fwAra4w+0j7nH3FjfiHPqmUf8p+B94sFe3pziuxm3z30UetUCmbPYh+FYwvJQPw0fnF4dmtPWN2cRjBKnP+DDwDyJfAA1PibRWHPzfqrtP2dyq93MdhxNkUiTxWchbImzIEbReNVppCBdvSHmEZ41LVnTwV0344d1hZC5pw6Aoj/Y75mlD6QKStsFmdN2VPwxzuxUNX+1F5xuU13MY+SLt3jkMCJG/Q9bp3RE6lxfRUKT2FfyHYQRy65EVb+pgk4vQquvh+jq5h0jutKGmt5WOPhOludcxJvd1HW1LMmljD/b520iOzZAwJjQhYD6ur9rQbei0gWurGji4N4OuzSnjqnzfGlh37ZKC5u/whzrxQDNZi+5a1EZ0jDZoZLxll9ENiJXa8L4Hr0WOJifi1hXag9t64wmhq6T2Dt+JlI3KsdVB0rb3ZVzTlC0KjJFwpyUm6qoUIkFC12zrITxHTULhwlbRGA7nKMUltEPVccB/BTI6ECqT6ikULHShksQj7si74Y6QrI4O/wN49pLVobMlbXtTtr/31Hg91/g411njQ8WCPTSomKg+XJWNdC2YWoSusxp3HPxkTo3GOuKcFBpQHPLiwY4Wi5gnbaNrWAzWDtmtWzcNFsICluTeQil+XFGNNDVIbHKr/Hih5qxF3MU1XEsHcb56Y8jCN4TUc5SOwWSFXRukQZ5ni0VYI+7XaUPVmfW6nqjOFONNzpF1GCesZbM3alS2t/2cHgVisCDHMHC2HiU/zVTuwgMpKCJjQ1TCSNBmDS1sQNPfFyBVBOWeSEPec0pEum4O2OKJExGPrDWF8psQRSmtI91ouye+FCIrXXxSQ31+QFpnF28VYMXPlLsz0VuAg/fF1mYEbojPMO23vEhzlyJbCPNSQ+i8KFhM64tTkUXCCpxBmS8fpR+2IXAnHmnPl6FiY4rYEDVjfaeVpfdUOcqeT1HxyfgU5G0sQ474frcLF83ivaAcPo8HafK46DhUqgPUkYpRXuOrJlfNdJCElSvM4hKAuAdExz5pOeKmMGVaYR4Ox8qS1bKTqsqdOGi/ZLUQnGrkPuwjDXIk/MDhmJ3Fz7M1ulvcvj9lnenO2HH0TehzFx20PCU5WHDGnbZEf4sec505dXqx48Zq22FIi6XR7Ea0Q9fZcv11utFuzMi6sQ9QNLbr9qHxkyVW7JWDo/cdJhBJa1lYcsJTsDadhBTYf/aSbVCn70Pv9gld5dOGUWf2hhyvzgSjE0zOoYHAmztsAyDDvfwwk3nmiCgFcgynP1gP14V98N4z3IUTEJ8As2G4UH/i/lhMj0LEZxSgVHy550UXCd3wZ61op9XkZTnIFulkgw3ZLcTJICHa8d0n9YodF8q+50PZU+IOPoPmy0XI9iaS6BaiKcbHUIJBXUskupapRAsX6roZwZh5l0/TwONp/X02sMVexEL3tmnUN0fQDfb+JWW9VW804jCR8TvZ2Qi/qb8KG434mz0GGTWRHX0Ipw7iIRmVJoJyw5rrX7h5z5kbQFtbchSv00dPvEsDLzc2T6FnN9dZrlHmuD60aULHnsznWeyd2ats/AFaZKxv+qD2rJJD4nHLl/FWoYrS9Src+H7sE9e4TQjFIOOscKVrIRV1NtPPfMZSZ3JyjrsW33dZhnchXFt3UHWcgl9ftJPln89EJ5B3unDktrDhsvDjTV8o1yMtncuic2eNfKUjaU+lIFF9i474TOQtEl+60NYfIEtSyiNKM5Q8gvaWIt23NDpZP4w/6OMyLxUZanuIp5PV5J/xWFaA+rIrCJYOoHt9AzwLRe52lLU14ILKER1P6Dmtd4esrtR796A0PRUp47mXZxod5/N7jurYlVomitPNLtpKFotwO8aJWJfDTD9XpfXYZ2LU7V6N2G21iUmSJoJw74Xr3ryELYpbEF5R8yAgV8YQG/HqVJ/jsNWZjMPNlEiKQZgQ/R0tlvM76pmrq8wa65teVHuKc/MWp+Nt+wQiB9erWQjfDljzi3CBqi8Vy/dXh+O2s4u9znR4QHiWxmtGGQYS4QGhrKMybDNh/nlMdAL5NYmN/JKMlMVC4oJkzdWjhqw6xwb7+h6kJ5QY62tA9ecibpiMXc9lxvgoRCKyVu2S39oHa9D0pfjmQfZzMomIx6pnlPvW+1k1fFfN81anwEgb6lt86L5JZ/t0KlwbS9Dgpg5abryIkTvRX54pq/K0K/UgDv6vYVV/wSH4Pq4muafaeCYPmbFVhubhZ7GqgDnd0LuscT0rSyA9craAjIxL6u+zgpiA0iJ68olH/6KzaREdb6wxT7qZd+C8jJlYicHFHCt2V+o4jJ44hCMPrJM1+vtFTE9neEhEnUmRjKgz57aPFXmd0ZnWfD8a15qpzKmqQJKIXVNfEBGfVTEweLYqF3fM6NmZdN9NNpZwVZ5VsbvteyyTatRknEhLLUn7m+2Td8KIyW1q8pVj3cgJNqI/mKLb3Kiz0GQ6g3HqbLzwgAUXdol4a8d5jMo4+mT55y/RCWRyGjZIP2k7drc8ifi3E7H8k30kGePYYl+VIE0+1hCPlI8rcIaSkhPqUfG8ENdh+N5T2+LfXo6d2kW672Od9p7PYnElZuTJSQm4267cq0vy5IQZg5SN1fjxQqr6e814/fh39H6NfR2zTYSZjCB6buxErnSrqn0kfnpAXpPJizzIWaya2PzIy/JecVTEjVydVgif8K4uK8T+ZSKS2IMDncuRKLb9LI3OV2wsRP2mvNisaYNpmMWqLBhzIF3Mllxrc7HqGIT3UOhGFy6i4kE3dXkzhyijzjaaDpw8Qv+bR7Kiw6pDwGIqkqDJbCtjFDS6mWtIrqqqLB1aoE486qBm3U07Ok4jZ0xOEEBV7TRdbsFx6kxcTBF1puJg5rafCvL4Q5aEQAmNs4tVxyZlmePXycSQmOwVE522W4Rs9EQVqvxqQDgldAxNECkkdoSgiRm551GVG/Z6JInJUfTpfdcsZFQf74qL1uwypwGwEDtzFUiReaDihDaVUfcGIV2a6mtsqDoTVuzkdUbHKydBTf6Xc+RknfOn0Nx8Cud27J2hCUYzT5QxSBfKXjuG0qdUNC15wYvYteY0ujeVjjMqCMfdUhfkozSjG4E3iqyxuGhZnIN86WZVFK7Jslqh8S5UlPTCt4wEbMGEztPJSS5Cw0uHsX9RluX45bn+fR6+rdOiIx7Z29sQWFeK/AXG3lbhxWcacPrvvChaqpNiZTpmsZJVdrZmg3ysQz1zlosrb/xauSl1FoGIWYk4iREryxWPcjTuJamaAuaYp1Bi6jhDMTjT6FeUufXkn6l0vaiHqyuxLmTuik5oK07+mTlfMQb3/1LOHDWymZ/5k+IvJqjodbO7SrizjGntofyDtbLMKXapkyIeWRBlyhiULlMuZs8AtVPLDtHRmrYbiyneKh4LMNqxSgQxTbGr8LOC49SZZbZtGFelcO1Z46SizmKCjl88OiFnbsp90HW2d3wXq7K+zLFnczuRcKzV6bnKi+Hd7hCj1h4H4eY09pFbtYKs8IewvLWVJYhukpYLlWdrSPa82L5WW5JiJjY1+Ibz4WtQtZfwEJhd5vRbui6q/yx8/OJ8l/+L6bEeEzLeJ3CccGR6ttGos1C9WOtMhDImrbNYJttQnW12n4fX66f8Yua+FRmPDZV1jlJM7f7Qz3hPH3HBYNA8Vnk4xEPvH+8DEg7jOglibPM+GYYxo56Hc6Om09ZRiWf9tnvxQk0n3nfoNBlmJhADztxTm3H2/cf7TxmaidKCZBhmdtHPwzl5CmQMk2Fmkygm5zyGsEAyzLxEPw8XEWsexYkq8TiI7Y8pMMyM4kLlJWc37+MMu1gZZh4j/iZnxKQWd+03ys3FMHPF9AokwzAMwzwmsIuVYRiGYRxggWQYhmEYB1ggGYZhGMYBFkiGYRiGcYAFkmEYhmEcYIFkGIZhGAdYIBmGYRjGARZIhmEYhnGABZJhGIZhHGCBZBiGYRgHohRI8ZJj8aLkeLzTN7d/ma67Rb2ouLBj2PRy33mK8bZvY5nkdeTi9UYiX9Tv3Rs9gT1r1VvOZ7QuQu9yNL1D7hFAvQ8y/NLa8RB/73TKb2SfEqPyBdXiepjk0OYW8zs85bI78gXKD/tG+0eEmO9N5rFghizIIAL/mo+0t1OR2dgW41v9HyPEi0j7+2kRL5/VafMI+aLdefRyUmYeIcRRvGTXc1Rfw2J5iJcOz0f0AGCScSvzDYZdrAbiJbRkjZnfNG9GvQHbYQQ9jbgqVUckXikzrxBvQ5cd5My9YV9aVbuVJXLbuQFmx1qej+hzD1tyVA+9M1sLo/5T8MON2l2TtLgxCGzchsdJO+3M23uTmVFmSCDj4XqtHQNvDeHi7oJH47VXrq3YgTj4T/kxGtH3jMp0x5fXMtOEev/hxLixegm+Ue+jk25isuQe7D+rhEgvW0+9PQvu7hVYydc78w1m6gL5+27U/1TFA3NauvEHmUhptC7SQst7PpuLVcQzxbZC+K4OwHdYuGLFeiY8HwYQ1LkMxj5rQmlDjs6TiqIbeoMDMpZEVt5xRxNkMlzYuoM+xMjZrpCjfpA+wr3ZbRola4vHNKqfanzCiG8Yy/gunwDq1opz1Hmp4zzndKraGg7v0xSHM8WVir1kjfmrkRvKR4vZ5WrKq7Y5xZnomGibOGZhZYfyOsYrI+vMWKZUdxEx3l69wc5FeYyhso7f1uk2bOfr1A72tnI+blUn4XzReB7Cvwl5Meh4qqvPwV3bifdffUbmMnBV2qx5e1tF1L9uJ7I8J2+nKIg6vq7jrea8ejHawTlWrK71sEfHFLe1nWtke058b4baULiQad1bbM1rPpWY7k1Tvsg2t9b/2lC+Ryuu/01jigI5BJ/3e9h3D8hadhZt27PxpN4SPT2oOO7CzltnaG+Cq2i9XICaX4UlcqjDA9cnZWj+qkfnGaF/4xHAySPi048O6yvYo8alFDLi96Pire5kvWw2mY+BuiqgNjyi7z/qgb8qd0odveG+6e+spVLGQXYKxRjc/8twmZR/g92cEvlObsWvf63zyPinF9vXaosj5C7tBx0y4tw16DT2J5bGV8ODAFveiRCdTO6VvXo/qsxii6CKTisXVagNldepA7Oeo8p1tWQ1rfuv4FYUTlTZyRQPorZTH3f/UXiO/E3kxBf3IN5dWwxQGZdEPjqR8/s2yo7OUoq/Crm5p7BF708cm7fY3HmpDq54MHz8ov5BbW4RBykc1E4kauq4xL5Etkk617Xb4YUHLaa3tks35wM3ttB1N5HVLOuCOvsVxjnSctRzBMUOg0Xv9rXjt5NJ9HKrpHTQPoyOnBbzCUQVX9dt/mC/pc3FuYg2t4t+VHiL6VzD7eTUnoG66gnvTfv9Jo4llJeWStPII6p7Uw5IVZsb9d9ZG6fa3OYKN+r/15dEPqq7DdRO44UVmDkndoH8msTxvRy8fncYyQmHcXj7eiTqTUA2Kt4KIiiWl/brtPEQYpeF8tzrlH8MncsyZdqBz/VNePc06ntbKSUZhRndGC5X+z29RG2ORFuANiGLCdcuebP7O/yWjl2sw7MX25LC3ZSr0jZhwfitcNHqpOkk0FwNv7sWNdsm6VSEqNEdHhc61CRs2+uhdS9OmjqRaYeOrTPUsyTBvUVUhhA7jbbCPXvDsaqkbXtJEqjTEAcWgbIYQhbErSs0SDFcfgE0Uwf+Qk2NqQ1cqGyhC8B7iEbuprP0069aLslOT1YJtVONO46ykShYKsNNYhtu0yT3FkpRdSYYPXFICthRc6yN6rpWNLosUyTQMR8is9xz1BKrStpWK68NWaZOCyNEpBjeBztIwyuxLtRw0br1jbo4Gz5HwlXZQkfrR/XPbXUrBkTjtVNI9IzBC52vXpdL6HdRYrT5m9Y230HnKNt8ShejGES8H253HRoZvBauWVelabtgRu9N1eYPdrSEBjaCpG01qs3ftbW5rn/VzFT/m436n7E7k3kIYhbIj87uxM67I3iw8MfweYqwXKdPhfx1XtQ8LyKU8UhdlKoSNcGrp9EsviwoR/lLLiQ+IZOxUH864aq8RDdyI159xrhMY0V1GHHCYjSuarrJO/wP4Nlq6n0ciSaGNlWUdSyOzaTR0bNk9fij32lCHpv+7ogUOGfcIrBIJJkrUNe7Y0w4cJLEymEgJM/Tj4GQKgs82GLp16mdxEVr75SEII57Akqs6EBhH58pIfXjiijTcMXr8wnjMGCQXKNBAFlYftHpvzW1CVCyLoAVEcFCGjAKD8HgNUsHbQ0TzDCTtflUrmXZBuYf0sDIZHU7M4P3ptHmac5tHucfsLT5rNY/89BMOQaZHJ+KlKf1yhTJWmoVRTNjd5RTFU8nkw05e8gOL05c9MpyUW4uDyL0MSLmo2J68wH5+Ib52MaLVc4mehRvtqKUVaZciGEGIYwBUe+oqYWHPs8bCvmCEqjRa9fpf7KONtpiWzqmNBnSlTsVVqwct3MzWzCRYmWgzi2EtwrV4oAjOv1YcSOifzawddCzitHmJitKtPmRBy9M6jZ+KObg3oy6zZlHipgF8uWNh9H0FHD77uso7xiaMcdAfLyWxa+Be+rb7JAkLBNjNqt2c3m2WEf34gYUnbHlGbHJ43SzgZioVOx1Y/9ZYU3rY3OKVc46t3BFiIGI9elOi6rQ4tY0LN04abEBm1/4z2QF0WDl/CiJ4qDKQyRJE9CNGvM5mpbKdROf7C1xIA8tSlbG7yDN2GaF0vVzScS2qE427rE/j6qsHos3Yyq40yKs3tnDaPPwRDDR5vvP2lyg0wndm3s2zqd7k2cCP8rEbkE+kQrPq4dRSJ1Le68H9X1q/up0k7gyGzniy1et6JIzV8cw8HEJds7YLFYDIy5AlmNAx1CsPjqybtSknUmfEZs2lkDNXyFbwHRqgWbqCCynqicq2eKl46EmxcyOhRGK4Zk6LecHz/3UqVK9YwteoHNwbfXg/Knz1mN0dKVGi66jCazBSLSL1HuSfm1FPS+oPAxicKWyReRSLlrP1kg36p9uQyP13nHnSUTqrBOMxLmTQoa8GY64tlLpThPT6DzJanphDl16RpuLiUfmNo8qBBI4iSNTGH4bE5uiujeTVpJ8Wa3/mDHa/JRzm0cMrplHiqm5WJcWYf+6QiSjBz/6eDd8N3V6X3348Y6P96m0uzuxXKfV96mkqFj2IkoThBXZjhL55+VS4OrzInlhltoewcPPYjVIEhMjaD/V24XLzh7DEveVDGLJjkshJlrMpBtHi7ZpAoqYGl886MYLcs1ACanqyHXnImYmjuNilTG/OC8OGRNhZhAVX4zO3TTY0QHR60iNF5MwSDwOkUX5wBC1pG3YS9pxZPueKB6fsBKoK8YRMSEmNFEiOtSEIi+KzTM5yVqpqqKhUu0u3QmqCVFipqU1WxWq/BN02q5KnK3ZIH+354TpkQVKb9kRJ2dg7rE9yhCoM2bYurCr1o3z1dWWugjUqVmxb86YqTY50ba5up+8CGmMuGbpZprKn+FT13S096YeeFY1Rwx8okdPgjuy3TKTdvREtWzzmu+zPD7KTDkGmbr5H9G0KJnsyFbs9NXjwu/1hmkjBQWeNjQsyoKKVL6IXRndaNuYL9cimYZZrAZ6VCiRo35bT0odl5jlJzouFePIxZW9kW6c8DNUYiIGJVAHqNbNU/5Nz0/pGFr4uazwYwZJ296n/fuxT8fdcq+8gf7GvVhh6eXpZn1fzF4Uj3Xo+NyhNHSO52LVHbM4j1DM0vQcpPl5OdnBmNyjMT/OQmWJ4xdT3419hhajMvSI3i9mnob8UqpdRZrZfBbT78/qqfSWfZmmzKuBjqkuaBGPafzy0lT+IpALleJRElMbivYSj1aYZ6yK8xSPFZifrcutWkGW88R/pk21L0joNloeVZETz2iDeJQhVC4tJ7eEJ/UkbWuMqIviQfFohXlW7PQS1bWt29y4Zi2L6RxFPnE/Hdmu88mncsQjEFM4dtM1rcpyvjcVdL80UpuKgY/p2GK9N0WZl1pUmxv3UW7VctnmU58wyMwH4oLBYLjXYZgZQnSoIjZqiTkKtLUgHoa3CA3zyGO0ec3Z961CYbR5zVk0TuVZSIaZJaZsQTJM9IxCzrFxepRiFh5BYeYCc5vbrChuc+YRgQWSmQX0c2hiAoXFMzuKE1XCdWV/1IN59DG3udlJRW1eXS3b/KFDIQwzw7CLlZk1lMtNrxiIv8DzmL8J4puMaPPt1OaWTkb8NRnznzRkmHkKCyTDMAzDOMAuVoZhGIZxgAWSYRiGYRxggWQYhmEYB1ggGYZhGMYBFkiGYRiGcYAFkmEYhmEcYIFkGIZhGAdYIBmGYRjGARZIhmEYhnGABZJhGIZhHJgDgRyG771oXqDcjXr5ouVC+EZ00kwz4kOhLPMdKp1hGIb5JsMWJMMwDMM4wALJMAzDMA6wQDIMwzCMA5MLZLAL5TouF9BJFj6rlvHEwo7rOmEMA2frUVKfJtPj385BybEuDH+tN5v5eghth/ORKfNlwnOsm37twN0AmhpzkCbz5aP87JDeoLk7gLaWEuTI7fFIrc9H6Ydd+MJW5tjVNtSH9pOKzIZSNH02rLc6E+yrR67Mn4N3+v6gUwmHMss7BpyPf/QEdqenI73OsQYZhmGYecjkAhmfgNQF4sv/h6BMsDI8clV+pi5Opv+D6G4pgOvCPnjvGyLWA+9gHrKb2mCXooOf5KDo1hmoPVxF62AuCo4FbOX0oOJ4Nsq+7IHa4xkcvFAK7w25Avy+G/UfrEPRDS/lVIzcP4Pmy3lY33RM/0YJ3SvHi7AvtJ8RXP2qGWWfZMMTEncbN30o+XgfupGF/Zva8MOMJ1V6MEBluiLKPNjrQpPDxKNR8VZ18cV70nmQwTAMw8w7onCxJiP1aSAOAxgSs0mNmZ6HO6WQjXwl5CYTyxLigRutqLlBkpHQgO43ggi+Rcsb3WhIoHx3a9CqlDDECP2u/qVhmW84t5RKIjkcJNGxKOQI/StE06si3wAO076ESLb1D8u3lAc+KcOP7tE3KvOCLnP41Qbki1/e/SF8UrDIAu0QQgfkr+nGF+WUr3wY3WsKRC609voiZ62SOHq8r6OVjqpw3WFU/Hmi3kBcO42D98SXUrSV6vMsHUBnRikS5WDCSpJ7C9zii2crXDKFYRiGme9EIZApSF0kpGuIBAcYu3wO7SL5Vre0hoL3LtL/aWRBkjXZ30bSRdwtQ7Z+lCP+PbL+6HfARXRds9qQu3JbUZahhCfx+UJ45LcuBAzrUJKJ8k1N8KwS+VKRKgXSIED7vCiFsnx9CVx6W+IqD8qWCFEn8bsawIOrXWTRii3lKH/FhW8/QV+fSIRrUylJnOAX6LGI90eo8O0kcXyArGU+NG5ertM1S11SgMkGRsl7HtR3dGHgXjKyXzqAknS5wUrSNjT296O/kuWRYRjmUSGqSTrJCVn0/0USwyAu3mim9XwSCCEqwxiS4peJ5MVxGPpSSmfUpD5NVqcJpW+iHPlFk4rMJdZ8Ychyk8KXT3mEIBrEY6EQQeIiHTPEcYuVhAzam4n4hdJqjSzTgKznRSm0NxsJeagpaEDhgmSM3G/Fvt48uJoSkfrTcpy+qfMwDMMwjzRRCWTKUiGQQM9Nsu5GhJuyDDkL+tD+eY/QHhIMsuxEvoQcmS/zuW7ldrQtrZtT5HZH7ozoWGQO7Ud+iQJDunowdFt/lQRxT0/QyUmgMhcIqSPuDoVikhJSRfU3COxlvoz615rwIm6jtbccvpvCRrWSmF4Cb8UQxkoCOL1uv3Lp3juIgjZfRKyVYRiGefSISiCxKJUEgCzEG63ouv8yctbkIGsp0HXDizYZ/0uFkL7UZS9KIbr4eTXqPxu2TbaJ5K4xyzQ4hLYPD8Arvi8sRNYymRoFacjWrtSDfi96pTULjH3WgOpbEA5SFK5JRdzKbBTKLYdw8OMAfivK/XoMXcf34aBIXvjXkWUu8+DgukI6n3a87qtH9+91uqC/CSUfnsbAnSDiF6chZ3MFDmQop6sQ4Yg//MOzWBmGYR45ohPIxSnSQrz4pRftC/ORTSqYtmQXiUG7jEfmL9KWYYYHDQlCIs9g3yfLkagfgVALiYzKFeLAJ3rbz9JQdFvMB83C/v/XQ7IXLfHI+avDJH4kkXdLsF7HPVM+2Sdnl2YteweelSJbDspI7FJETLIvG985QPkOpCDvhjiiLPx4nDJTN+9HPZ1P3L0focjrQ2iu6/0xeC8XSLeqcX5pfcq9nPVcXsREHJ7FyjAM8+gRnUDGJ2CZnp2ZnLxKimXimg16ogoJiXzEQ5CCgjcC6FyzC/kLLNE+E4lIe64cu57KwSqdAvqWs2g/fEWnUZExXrxxHJYW4fDffYL6ReH9pS7wYP/6ANq2rw85YVM3e3FhUz08C1fpuGMqskSZr5oe34ggFUVFTdglBXgndrZcUFZxRgkGchvoHIx9JWPVQl3ma5ETcXgWK8MwzKNHXDAYjAywMQzDMMw3nOgsSIZhGIb5hsECyTAMwzAOsEAyDMMwjAMskAzDMAzjAAskwzAMwzjAAskwDMMwDrBAMgzDMIwDLJAMwzAM4wALJMMwDMM4wALJMAzDMA6wQDIMwzCMAyyQDMMwDOMACyTDMAzDOMACyTAMwzAOsEAy4zJ6YjfS0+smeclzAHXp6dh9YlSvzwajOLE7Hel1vXr9G06gDmvXUn1QO8ilLoAH/BI7hnloWCAZ5lHHVYlLl/rR39+J2g1xOpFhmIeFBZJhGIZhHGCBZBiGYRgH5kAgh+F7Lx7xbxfCd3UAvsP5SHtbrGfC82EAQZ1LMNxRSOlim7GkIaexHm3XdK4RHwopvbDjAtoa0/Dk26nIO9aNK2fLkUfpqfUlaLupskpGutD0QT4y5b5SkdlQTscwpjdaEfG3tenpqAsAUwrnBOpU/G70BHbL2JCI5enYmY4ThWJpTnE+/bvoY3uTxOX0/up6w2djnKMRuxJlOZ+rijOa8zmhYpZGPufYZaAuvB9jXxFlhurMWCaLgwroGNeuVfs8flunxYL1HO1lGsdtP3fH9Ijj3w3zZvGbtdROofoXMUPTb0LXHKXtWat+G6hT5yaX3Sdwe0oXJSGvS70fscjrcOpY29y5PS3HLvKY2yd0jkb77cZxOjlZRyL/w5wrwzwkc2hB9qDiuAs7b53BkFy/itbLBaj5lVki7Qyh58t9KPKV4/QdnUT09H4PRV8O0Y05gq7BImy6cBBdlD5y34syP3U+ItNNH3b+0yaU3T5DJQlGcPWrg9h5vADv9P9BpoQZhf+UX/7Oe9LorabCIA5VXcHe/qPwwItDu6twaksnOmvdYsfUASdh214P5fNCFGNm1H8KfrixxZ2kUyYjCStXAHGD1+jox8ON1UvUN9Fp5VatwL9cuoT+/n70d9YCVbnYYxcXN51DejFwVMS4aDnqgZ/y2ftVkZZ7ags6RR4RC3N7UWzJpASoeLBW5wmXKcTCQIpGbhVWUHmXdL6jniMo1h2nM2LfxfA+2EGH2Y/GV5/R6VEixakYg7Wd6rhkmXT8JpF0VYpzEufZHBZOEptiL1UR/a5xm9FOdCxVQK3ej9qXn07TKpIYfBdVV/bi11Sf8B7CnqpT2NKpYojWa078luoN/6L3R9eSvwob3459gpKs2+JB1HYax0b78hZPUSTVgIyayrS/ftSiGf9j1Dh4o833W9o8bt9GNSgwNeepqkNY/ctfUh370VG9h873qKobcR+E9scws8scCuQI/ctCee51BN8aQ+eyTJl24PPwzZqyuZW2BcNLOVmfsu9rRlvfWKgPGUEq9r80TPsQExRGgEXHcH37YRQgDiMknMNkl3Z9WoFWZKCUyvut3N8YrueWIZOE+kf+LljtyCS4t7jp14Bnq4tUR6XGjh/Ysgu0B722BbWhjnQQ10SH6dpK4qmFOIQSaHj2IpQ9Cpasph48dLCqcwqN1m9dofJXYIXYHwnCu0cewHO0Eq44nT9pG2pJAc5X/zwsAAI//YrEqtI4CdcuKRTeQyesQuwm4WvcRjUnUPWnBgGK0ROHaBjgwdFQHkKXGed9V4tHAM1VfrxQc1aWZ5yJq7KFfulH9c+dOnLqqPdsl/tuufRWqK5jIdBcDT8df7htRJl6UBNSNRrMNKo0JfxUv0IdPUdN4ihwodJ8joRrVy0NTfw45TdZV/LScOlzpJXNNeG2tg9yqIxLb63TKy7sknV2ytpOk2LUrakccaxaoC3iHQ2BZlT53SSOjZZrNGlbJa2rsxo98a5ql/etbV5Ts0GXadSGH/4Ve/Gf9e/8/hU4SheAUTcDt+QXhpl15jQGmb/Oi5rnU+hbPFIXpapEC2MYOFuPkp9mIlW4RQ+koEj39yNBk6X51F4UZSTqFepPvluAlIV6RTptA+i+NUKd00Uc7FyOb0sXayKWdzZQCvFlAAPi00TStkZpwZg76tixWYArVlo6ToULW5VChju8UdGZanGOgSRhQp6/AtmfjF4jCabupcMvO9vRa9dFqkRapw88sGu//H2cFu4QKl8YZanCr8vRCEGMPDcDLfju1dAGbIgk9xa44/y4Qjt7EDhJHaqoJvueVB1FWsfXyIrJRdU5YTlWYp0h9jERwMkjTse/BGK84RcHFsIQFLK6hMVKdSM68klJWklDExvuzbBeGuPXnn2Q5txOkyDr1o3Ndo/EktVSvC2nGQWBk8J0prYb97CpzenaU21ubZckce424bOcozst4jphmLkgBoE0xc9MizmmFStZS51E0WAMpz/IhuvCPnjvXRV24fg8AYT0kPgPtG5hZIjsxPmLsjDCblYpYGTRkIFhIRSXMS2WeI7s7FTHOervAJln8PgHwkKmO6tbV6jjovKKbftKJ4somufnlKU6BRwHCIrBUG/vRtp4vaP5XATearJi6PNhOlQaSFynoZNwEVvqIp2EV+zbjqsSQiMF0gJXXy3Y43JKTOcWNUAiK3yjNR6YnltFqbEyimti9DVBe4aIqs0ZZn4Sg0AKF1M41mAsleumMmqPgjtd8N4W0cks7N80HHKzdi5Tm2MiIQVKij3wlZhctqHlh8iW2+eIJGFpCiNSKKSytpwsMldlOC5nLJHxNmUN3LoC2qcbqzcckcIrRVF3VkrgyPqx7UstVpeZE3JfDtbgwzCRBRXCLoSeFhnT2nC+GrlTncxB1t1yGjSIOGJkXdBisxCF+BV73fB4aEhTbIsrEmJ7Limrx4jZykW4ZueWpJXL6X83as7qmLNticYQDqO9CBPGuycnqjZnmDlkTl2sE/I1CZf8koyUxcJ9GsTwZ/WouSETYyN+FbIShAfHiwMf+tB7V6dPgJzQQCNsEW6auo0cLXqyjnCzSvdqLJNzTOjOXrkNl2NlUhLcm6kjJ4UU5+AWM3Ro85RcdCFo38oPGiHg4xMZkzSwuHtlPNaPDr/9wFSZL9C5RJSZtA3vt1DdTTRxJTRD1Gk2rJMrdRxoP1Ukfm6yzCsr98pjraoyx2INV3Kk9T+dSPfmC1YX7aRoV2rU8bwJ60wPsuQEGp0Qgbr2VJtb7yDh3aAhBLbMYB0xzHQwfwUyOQ050m/ajpIWHTP8ZB8ukmDGTgoKcveTLQr03N6J9fIxk/BS2PGFyhZCdXTitn64WawxIMXBi2Lh8opxck4Y1dl7i4vh3bFFuv9kvMdbjO3eB+ERu2sXatznUZVbh94Y/yZZoC6G2JuJpG1CUGwzW7XgvFDzfe2qVBNQzldXWyyzQJ2ahPPmeJXiqpQzg+O82x0fM1AdskC5sa3baXDy5g5RaRGPcFgJoE60TWgyj45HkjBXhX5nxGdNwiGFZhpdrHrm7I43rROBJoUGEmIMdmT7nqgm5KhZ1ILIGdYC1Z5ihq1VQEdP1IUm3yRte1O2+fa3rW1eXX2OxhC7whPEGGaeMn8Fkjqgstd8KH1KOUeTF7yIXWtOo3tTqVyPlfj0CnxS5MP+RTlYpdPGZ7pmscaCnqxDxDo5Jwx10MKTRniM4bl23wr3mjYgRSK2vX9JPsrwN/rZwdBieuRCTqChDs4cq1SPaTjH3iaGBMV4rMDYn36c432Tm1hMjjpbGycfbQiXKR4TmHgSjvhdiydOxhLNj40I1KQQQeTEJAkJrPHISejY5GK4UEX8XYmcZ69JmHQ8UpRpiKt6HEQ9miH3kWs85jN1vMWm2LN+TMMc2gjHpsWEJRInqmPjb7Oa5wgIF729buWy2zYjmVBtL7BP0jIQ7akf5zHtqwq7QrNRVR469yN/Ey6L2nz5v1ySM3/Hb02GmR/EBYNB+4CbmSNER1fsFbHBqQgQ89hB1taejSQoLf14y0nYGYaZUeaxBflNQ8XZpOtJpzAMwzBzBwvkvEC78GwPqzMMwzBzBwvknKL+2o2MHcH8l2gYhmGYuYZjkAzDMAzjAFuQDMMwDOMACyTDMAzDOMACyTAMwzAOsEAyDMMwjAMskAzDMAzjAAskwzAMwzjAAskwDMMwDrBAMgzDMIwDLJAMwzAM4wALJMMwDMM48MgJZLd8ebJ4yfHwrLzHmGGYcZAvgw6/CzL8/swwYyd/gHMvv4wLJ0dorQ+99P3cyz/AZbE6Q4ydLJ/lMkdwuTxflTFMvVLfIVn+uR+cxNgMdVLqHA/hN49sJxh9nQXq7O+sdXiD9wzxzbMgR9qwu345iWw+/rH/DzpxZgn2NyCfRD21vgRtM9gxzC1BBP41H2lvpyKzsQ3DOvUbC11nJfWp8jpr6A/qxMcTz9F+9PeLpRETv4zmGSxME58r8XSyTJgF5qDMZ1bgW+LlnSufReIj8xJPNZBQg4o5YII6c1Ve0teXeEG3Tpwl2MX6WNGN+reflBZ2eMlB4QdNuHBHZ3nUocFGtjyvUnxy1zbUDHahXG7Lg/eGTmPmlMRnV8rP+GenT51+c0hYHmRtHLqoU6wkPrtCfk5nmROTjKdlkUKEp0sRycL6gbB851C0HgrDQhTH7zRcnok6m36+eQKZXIDGiusIvtWO/5L+pE6cWeLTy9D+VhBDFU0omLWRs0EP2m+XYePhdxCYUUMmHq7X2jHw1hAu7i5Aik6ddtKz8Nfy3frNaP9sTKUZfN6NVvG54GVkLpMpcwddZ00VQ/I6K0uP14nfdKhTFHqZtgJ/ohJiQ7vh7myojeH3D1nmVEh+lu4G4FsrnlHrMaLc0u8Af/smvqXTHiWU+5eOf+cb0R//Q9bZTDE3AtlXb7JwxJKKzIZSNNk7PGLssyaUNuQgTecrMlsGIz4UUnphxwW0NabhSdqed6wbV86WI4/SpUvzpso63FFI281lxuOdPgcH/tfD6PqwFPnSPSby5aDkWCeGv9bbDe4OoK2lBDl6X6n1+SjvGID5DIx4aXgphM9pMOhUZksbBu7q7RiG7z1hGRbi2NUr8B3Ox2qZLxOeD3sRqXv5+O9/9wfqnIMYKzqMQpF070fw9gXDcVtbmcbx/1ZvDvxrtko/3GXbfxBdh9X55H88ROvCajXOTy/v+ZxdrBOVSdZfhbR+69ErM9v4rFq2X2FHCjYsU6OM5hsXLccWuPoLGrcCmStz4FJJdI10oemDfGTKYxPXWTnVoXGWiu4WZXXX99HKzdMo/6k4Psr7XhMCv1d5JFG0ubjOQvWgF7lfO+O0+ZVQm4ev2UIq40pHuXTTG8fVaz4uYljeJ5lIlXnSkNPYgK5xDI/RE7tlLGdWQjkZe7Hho4+wLkOtPrv3I2z4yVYkqlVqn5O4kO9sJamOVseoRL7/CiwX+8qcxOKYrMwZ4Nm97VTmXjwrDy0D69o/wvqtptGwFvfei5F9zm8OCUvxEH4jVihf36d/hYz2n2CN0IpJjSsjxjqBtWnE94zlUPiCNGLE516uxO9o/Y/vft+SN2J/9n3Z46Dy+P8SGR/R8U9iDExaZ/OAeWJBjuDqV80o+6QADVd1EjHU4YHrkzI0f9UD0RWLfE73fE/v91D05RB1/iPoGizCpgsH0UXpI/e9KPMHYpjMM4y2pmxsutyMM/eNknrgHdyEsn8zTQoKBlD/gYvE2ktbFSP3z+BgrwtNTp3hhAzBR2Xm2cu8UQTXB/W4YOkIe/DD4+uw89YZXJfrV9F6+RXU/MokfDbiSSzyE9R9NnLX6MpFmestZRrH/8oxJbiujB3IFOm3TqPHrELBHrTdEl88KFmfKpOiI/I8LWXGJ2DZApF6l8qPPJvhkQH5mbo4Ga7ndpBdQNzqRriPD6DrmnC5ZWJHhpbHmz54/ikPZbfPUE0JxHV2EK8ffwX1TnHBrwNo8BXg4D1xfJT3bhkKfKeVAE57m1vr32jzdR+8g26b+PX05mFd70GckWvquF453hkaHAz/mwfr5X1yVd8fQ+j5sgJ5x334Qq6bGYX/lF9+856cvckO45L8F0hIi8MfP/132+SMEXzxP6nNt/wt1qTQ1Zu8FevbqTPVWx85MnKkBfu7c/aLpQ93TpHl9OZr6tyEuAsxn1QYibRruJlfCdTRAIAGBBvqtkiB6zUVIQWw8hr+9Oc6z0d1+JNTlSGRTNz6k3A6rX/rzZ/rdbVYBEsMUrpyTNt/jj9NO4Xr+VrcBcbx69VHnbkRyIwKad2ElzF0r8mhDdRJ9Omb9u5p1Pe20m2SjMKMbgyXq7ynl6jNZkaQiv0vDaNzmZQBYNExXN9+GAUkCyMknMKaSdncij/Isq7jcMI4V9+dHrTeHaHu+UU0FOlj+4dhBHLrkUX2f+hX105TJyq+lKKtVOcrHUBnRikSZSevyN6ut73Vif06zc7Y2RrspDKxgPblGZP5xzxtKFtApd3bh5/4zV2cGCBkoTz3Op3LGJ1vpjhDHPh8/I5u7Go7nRPkOeWtSpHnEPxVE354dxiZS9ow+A/qGEWZpXTsPYPN6BJWzKoClD0l9uDFabI8DYJ9bThIn8lLPMhbLFKyUSHPkZaXxjtLVWYFnaco87pjmclIfVrkHMCQ1CcfioRFSRasmEo18pUYIpGFlBCPJzPySJ4Fv0CPMaAia/Kj+/S5wIOcVfIs0fXpD9FKvynNHcSYPMYxXM8tJeuyB/v8XSFr2WCkrxUH4w9jgK61sU3laoBwO0ByQ0TZ5uI6k9vkdaYTbYg2f53qX7T5h57fWupCWPoH/NYZ2rLVl3yI6+bjCg0OhtHzubhPgBfXBPQ1PobhojbUU11FXulJcG9RMx08W0N29hySjO/8ZRo1+6f4YsR01iP/Tgb7A/xJjjYDH3kysHgLfZw6FxYTQV8XWW5pSPiPU7CcBgYQ/9/aQ5YyMv6aBItE+J9Paq9GH66/O0Ci90OTNUeWGgkpTv1z7LN6xSBlr7k9krHmb+VJ4U7Mg8RHgzmzIJVLyHCdJiL7srD5gIv3VGccvHoazeLLgnKUv+RC4hMyGQv1p4Wn9qIoIzxm8Xy3ACkL9UponB0Fi1ORJTu7Myjz5aP0wzYE7sQj7fkyVGw0RdWWupAvvxxEyXse1Hd0YeBeMrJfOoCSdLkhSsaog/fKb/kZZchbqmJV8UvzUJouBgxAO3X8Zhde/rrDqHleCF08UheNZ8G14/V/Um7DlONltJYKT0Y9CnVcLvD5AdmhXrxVgBU/U27ARC9ZTkJgqNYD0o2dSsckZGgE3ss9uhaD6Lks5RGeNVkyZhAt5jKXO5aZQucj7uIhsnSpZuh6aBcyoYUgeE9Yh2lkQdJHfBbyaKAUh4to/1x4Duh66m9DF31LXpql3asBdN+SJeJg5wok6utseedBJSxfBkiKrRy8FUD1S0VIpWss/s9r0CPFpkLtb8baXMXBRZuXUZsLQbO3ORIO4/DOTUgRx7WEBgk6WUH19oyQTLpqLxeg4INGtF0dQfwy2t9251hw0rZGOSuwcj7oI5G49XWyXgZw9/+Ee+yxf/8Uf3ywBYsfF30knv3rN/GtOKuY/Kargy7rv8J3pjRRRdSP+Xc63jowKN2lIfH9C5v4ihmjVN/3buv1h8GYffqYMicCGfgwD9kW12kkY3f0lqeTqdkngTqOkB4S/8FJRKPChbLv+chyWk7fz6D5chGyvYnUsRaiyeySS8hDTUEDChckY+R+K/b15sHVlIjUn5bjtI55RgdZBFIggKyl1m5v4QJtftwnq1J9k3zXli8aXnzOh398abUWtGEMmeJcE5G43oNy+gy5WQ33Kg1aCr8bizxGV2ZyQhb9f5HEMIiLN5ppPZ9EqRW/uvqF/n0GkqXVGo+sNaXiC7qudtE1NIyuwXZaS0ZpRraymkaG8CvxGQuLSpA/3uSeGWpzc98yXpsjIdUmilZcr7Ti2JI8yjOEM7f/C4qOpyHxQBoKPySLUueZ3yjr6o+f/h89MBjBF58Ky0e7HR8XtDv5d12GQvbhTgdZyX8bpUs1Cv5khXymRTL2m2v0/wD+7/fNMUNavv8u/qiyxIyKl9r2ZXGNP17MgUAGcJqsA+k6XTegXV9BXF+nxucG8fFaFr8GpGdrtlhWgPqyK9J91r2+AZ6F4jjaUdbWgAsqhyQxvQTeiiGMldD5rNsvrYuRewdR0DbOBJVxMGSm56b1V/fua0V5KmUK/nw9SWf7YRRRF3zm8xI09BldZSJSpOuULO31w9olZ10qjFF7fA4Jhjh/L7o/p65du1dfTC8IT4KJCmuZ9vKMMlOWflfm+dXNLgTImHiZRDBngbASeyAdCyahiF+Vh11CXu61ofvqRekWfoC9CHnkEsiykl88OFaiJixZlwqsl9tN0GBsorqeiTY39y1TbvMnUlGwsw0D5WMYeNWHhkU5dHcNoZ0syganiWjzkGdzSCGlm5VWpHt1im7HeY12J5/qUhNbhIU3zVby7wYHQjN21SM2aab4o3UJuWajRDxec/0U7a9ZTK7R+/m5sIp1hseQORBIY2ycjNTkBNlZjF31oeaysADCJK7MhnQyftWKLunyo5v/4xLsnMnn20baUN/iQ/dNOsanU+HaSMLi9uhR/kWM3NGdTX8TSj48jYE7QcQvTkPO5gocyNACf3dIuhKjIwWuZdqVevkgWSKqboI3fNhHN4+oo13PZYY61JhZVoR35MDjIn70b006ZhWPVc+oY/V+Vg2fbUannex1IuY1goN0PF3SvZoPz3+K1Yq1l2lxIIZZlCpFZ+jGL9B1Px85a3LIygLO3TiCNholPSCBDLkMydrMXyS+tOMXnzZJd3zykuywcMevwnelQebFTz70IRCFBTshM9bmauAi2rya6vhBzG0+jLaWevj6hujOikfqqgKU7KymYYG4akfQNxIp3bM6izVaRPxs9VXc/fcR5V6dstsxRgJ16q+z7D4B2x8BmhGUO1m4WR/gN12ngC0bptFKVhN+5MP2YjUmV6r6gwp/HBwvs7J2Q5OmviHMgUCmwSVjTRdx4JMUHSfbieZ7NlfqshdRmqCstxL5uAR1LH1eJC8UbrhYEY9JxOvHPJZjp37A/Ecfqzhd/HvHtAUQRM+NnciVblUdJ/v0gBzlJy/yIGexvjDuj8FLo3PhYjPypfUpgc96Lk930ubHH3KxT6a1Y+c/6bSWbpmSmrsf+4V/+N4BFOhyE1t2wie6yoR6lD//bZlvqqRs/AH2y8kfP0SN/vN8KRur8eOFdC73mvH68e/oY9RLqC40ZC2KyTojN6tRI9yrVA955oYyP7LzsTpL3N2J5TrNeMRBlKnOsxk7j6t2Dy1GmYuV1XfxSy/aFxYgizrItCW7aH/tVHMkzYvMEbVEZK1SU3XaabsYTFjjoikoyP0xxNXSc/t1ZFP7m8uM+U8VRtXm6jpT28V1JhOx72Od9p6aVSraXNX/Abzi/bbcJtpcPMOZnPAOKp5PtLheJyN4dx9e/1i4VXU5P8uDump3Ycef26OQ82wWawhlXf3x01/g+qcD0+p2nIjRa4Pqi78KzbNSHcqd/Ltz75KYkTX22vSZj785JB7V2ILlxkSa5K1YKsqqjObP7On45biTd4SAUoMY1q9APPLBLtbpJhF532tDQ8IqLYhZ8CyjEf6r9bIzC0MdnIfyLcrSrrIXsSujG20b9ah9JkguQsNLh7E/VCZ1ZgvysWvNaXT/fR5CUpVRgoHcBux6yjiHZKxa6MH+9QG0vRbjzIens1Hx9wEcXpIfOv/kBXSuosySIoho6EMRnw0PWTqir2nvPYCu39PVHO9CRUkvfMtI9BdYhiUO6Mk693vQQ+dZ/ud5sbn/DGSZgYnLjE+g+lZfk5NXyTZIJCtSHT0dyWLr7xIzXtazWQWFeDHDanfFp1fgdJGP2jMHq3TalJn2Nu91bPMLJd8LXXvRkYKiVzvx36lew/cPWdfPNOD03x3EJmNQF2K+zWINk/gXf4lvDZzC7wac3I596M03Yl/qmT2c+q+hWJj50YZYSNq213QNzQ7SnXyKztPJShaPUtjie+FnE/UzoYSsK7JEr4fq5GVcv/YmMsRzhTKHQjwDmvEmIuOQ4m+e6jwGz+4Vj21YY5bh5yCTsebAf5PWb6jMf16BDLuLVT/XKrfrWOcf392l9xeNUM8v4oLB4GOs/wzDzBjij5XnVmHF0fkzI3YqBOrSUex1o7Zzsr8ly8wtozixOxdVK46if5YuuDmZxcowDDMvCNSROALu2loWRyYCFkiGYb6BBFAnJueQOoq3kTSyOjIOsIuVYZipoV2sasqPgN2UzPQj3gdZ7DXJlGf2XKwskAzDMAzjALtYGYZhGMYBFkiGYRiGcYAFkmEYhmEcYIFkGIZhGAdYIBmGYRjGARZIhmEYhnGABZJhGIZhHGCBZBiGYRgHWCAZhmEYxgEWSIZhGIaJAPj/AZd+dlKU22WsAAAAAElFTkSuQmCC;imageBorder=default;" vertex="1" parent="1">
          <mxGeometry x="281.68" y="620" width="338.32" height="115" as="geometry" />
        </mxCell>
        <mxCell id="REBhrvAs2Bosw9O1GTWI-34" value="" style="shape=image;verticalLabelPosition=bottom;labelBackgroundColor=default;verticalAlign=top;aspect=fixed;imageAspect=0;image=data:image/png,iVBORw0KGgoAAAANSUhEUgAAAZ0AAADiCAYAAACV3BoCAAAAAXNSR0IArs4c6QAAAARnQU1BAACxjwv8YQUAAAAJcEhZcwAAEnQAABJ0Ad5mH3gAADbBSURBVHhe7Z0PUFRXnu+/Rh06T10YjTbRxQbfCyhZwJnMoLOPgDVujGhgykwgFWswzvinKqhT80rIizHuVkUNeUFrpwb/1PPPbiJbpoJOrIABQ9YpJewbcTYbWt6gmCoBXQ34JwOjeWkGE985557bfbv539iXP34/Vtv3H/eee+7t8z2/P/eeMR6P5x4IIYQQG3hIfxNCCCEhh6JDCCHENig6hBBCbIOiQwghxDYoOoQQQmyDokMIIcQ2KDqEEEJsg6JDCCHENig6hBBCbIOiQwghxDYoOoQQQmyDokMIIcQ2KDqEEEJsg6JDCCHENig6hBBCbIOiQwghxDYoOoQQQmxjkKLjRsHjjyM+Ph7xBbV6GSGEENI9gxiu+gaOrU3D5pjDqN80Vy8jhBBCeiZ4S+dGNSqqU7B9VZJeQAghhPRO8KJz7QKqxVeQZhIhhJAHECYSEEIIsQ2KDiGEENug6BBCCLGNoEXHXf4vQEo6UqaO0UsIIYSQ3hmw6LgLjOdyytP/L+r3LcM0ag4hhJB+EvRzOlJ8XmjchlP/m8JDCCGkfwTtXkta8jOgugLVN5g0TQghpH8wkYAQQohtUHQIIYTYBkWHEEKIbQQvOtNnI0V8MYeAEEJIfwledKbOQgyqsfmgWy8ghBBCemcQQxtI5Hg6y1F8T+wih0McEEII6Z1Big4hhBDSf5hIQAghxDYoOoQQQmyDokMIIcQ2KDqEEEJsg6JDCCHENig6hBBCbIOiQwghxDYoOoQQQmxjiEWnBoVvOuB404XCejFbVyimxXxRCZqNDciwYCiuUx1qM57BJ8/sxpV7QFv5RjEt5nfX6fWDpLUcZ8T+a4PeXSvOb5TlG8w+Boo4Zl6Gccxzw+OZbuO6iGuk54cfobtOV3aL/W4sR5uev9+Y9/yZ8lYxJ34P8v5/ZiPOy9kRzBCLTiRcE+R3MlxTxFeYA4lydpyYlN+hpLUUawujReOZgd/Uf60XjiBE+dcUulT5i+o9emGoGMLrpImImqW+x8dMU9+EDC11uFUBTFq5BBF6SWiZhrA4+T0LE51qwYhliEVHNFmi4fIS7oRLfo+NgEMtGALqizBP9erX46P2gN6kpwp5at0iFF/Wyx4IhuI6yR/ZGCAuBpP0kuGFE3N2HseTx49jboJeFHLEMXeUGcdMHGnvd/dZad5PCK0EH6G5Tm3lb+M20jFlEPtUlpKshx6sd7Oj5Yga4SoTwBCLTgQiVQ86Di5rvU4MD33vwZmJfflN8LxShl/GP6wXCuKT8ZwasOEAyj4L+El8XoMj8nvsM0icqZYMHaL8+/ObVfk3xIdaoofwOplMi8F4cVlG2w/wwUC6hlbhZsx21fgbnwJMurgHdVJ4RtzbH1vxxckGID0VUXrJgKjbrcTmVqqoA72ob5yYKDVo2HbC+s+IeOFny4ksRNeW6TmJC8mTVyPv7zYgc5bR4MptYsQ2z8x1Yyv2I792Fz4WFyo2PA/7sjdgvnQLWbaznvTrS7/Gywm+nmPN4WikXW4Bpn+EthVp3t68+7fzMO9zNxIfO4OzP9Vv1L7bgqoPt6HwYhk+/qYVzrFPISthB15bHOdtkGsOO8T+gK1LPcifXIm8kjXY1QFRttdQnLMGSRP1hgH7ku6snJht2PrTVERqS6PlRLaoi1JjRqP2202Pq+Wz/dhWXYSyry6Kn4muswVrkBlrlKznOnsNh0S55prlGiA3jq1F2uZq5Lxbj01JemEIubI7A00Vliua/gaeXKccgBZkjGgTbgfc7ZMKdA9YNgSbgOiDMbi6ag86RS82+vhzuLNRNJaifUF6gdin3FDGCPQyRRweObgTc7rVQtnYimPquZ62lb77uj3eHVqOZSKthNW4ecEsvNjPgR2YE9mNtSNjVar8JvI81lkaR6NMeKMM0f+ZZzlu4Hb9wyj7LL+/lT34pgoxEZeLhJ1LEKHq9lKXMreVy+PHILpM/K13ceB16uVce6WbOuvpOvVZZwGY52Pdn94Hcg9g/pJIvdDAqCMY20Nu14gZ6pz1uS4OvN6jmxGavdaMs19uQXZJHipv6UWas7WLMFc1npJWXGzPx4JDb8E9gLBH0mM/E02v4FoNfKMFuVF16Zz4TsTPEsyWtBkl++dh0fkDWiTEEb/5GLtqk5D5nhtdDnnXjaKSTCE4cltZNiGaJZXaxdCC0oB9ibNBceMibPhXIYADpPnECsz7aAMOKMFRS4w6ez8ThXX+JetaZxvwk/dPdy1/v7iB6opqNVVcHvqxluQP+lZqqa8HfTAX40+86u+ykA2CaGg9Lx3w365LO3YJV98SDYLshaMCVze+hfaFB5GQGwdUVOlguc9d82RBulrSPUbjflsKiHnM4yvR8Za/S8loeEWDdMBwm8lPQszbqK2zqqPPrdbbMVXgWTR8DiGk5r6i00+gSQafW/zV9varGahrXKm3O4hH4irQdB/cXabgSDF/UgqOXg40oOO6ntTcbhSC59dz13W2WHQadPlVne2oCKJcg6kzURe9BOyvVIkTjFuIR60C5nwC4eI26Tz5HwFlNa2iFw2Bci7BfCloA9XQUcSIEJ3IxUfgecXj++S1oETFkw+gtK7Nz2qR98lTj51CS57Y7qVSrJcLO/4exaKhldvJfX2t9tOEQ+HdX3lHwiLkqKmjOHtRTQCXz+H4N+J7bA5SY42/8/xBWAftrUicXoqmXxlla8sRxxwrGvLG/ahqV5t5aa07gl2OQ2gQZWt7Ok8F41uvu40MsFtncUTsS5QeRdnGvjy/aoE7rRDJFu9Z5OISXQ+y/D2M3HqrFNtrj4i6SMT6tEa0qX01oXR6otj+LLZUl+ILvamkVfxLnv4Bmqzl8hPcgTAVKelyTFkgZ0nozZyIJTuFpWKpBfGjnrFYzEuR0DfGlaN70Sl63bPT/XugXRGNw8LnvD3cTizE7CVmy3IJd3pohLql9YoS7Ump1h5sAub6NcRmwysbMN85dDmnflGHJmG1jBc9bWvsImrdG6JRb8DN3wbEDaQV4u1dO/HoQtFiNjRarLKBIxtwU3D84icJ60RDbgidkYllilMsHnlZ1Id5qmadPRlQZztCFaw36+xgQJ3JToeos6PdxVp6SiAw6/AkvrDeJ62fol1cYv9zerAZIZZOGxpOFWLNPybCJQP5OyKRrXtNrZ6A/vi0/Sj56XxESHdU+CJkzTQa5qrL4sr3F0cyFk2Xf3cOZZ83K7FqqS9FlZhyzkiG2ZS6P9+pRO7ctUxE/1omGDgQUSwsGSlOQhDdAckGu6658drSbLhE2Rzf24azSjzyjf1NcSFZiBWEvbGhJAPrPyiF+5YDcT/agPwFfTWW/rTVVaJYlnpCHtb/6FHDPeiIxKIFG5Aqa6O9CuesSRLhh3BoxdPKhecQwqSSBAbB1GX7UF9vj2utOybFqDQfjWgkTtzD+IVP+Bq3HolD+BOW7uusqOAbO2eUqvfbm3pP1VVlbdiDurxBWhl1VUowHH9t7X5LEjBFdvQv/aff/scv/P59bcjvKBdSQ1fB0UStMyyOzj2rVDyjqSId0WUB7i6zzoQ42ZKGbtZZlzihWWdXulyT3hIIIpasxKQxDWj/1Kc6bZ/+Trlqpwy4EzF6GQGi04bKf5qHpDNbUNxhuop6wRHujcFYOdcxEGeRA8lzlI2EqotVwhJpQVWjjCk5sT5hnrYuWtAcYMn0yeQ1yOgxASEJG54vwfoJssn/GAfOZ2NecYQQsizsH2BKtMeja0kImZ+AhIVBGEeCVrRZdxkesN2IQvrFLRlR4lO354JeN5SIHrpyWxnCY5Stq8smYskOw/0jhcc8h6CfRYpDWE8Z5YO0YnqnAjdVbKjn46tMrU0VhtvNdOeJ62ZaPga6zmaP8a+zANfg/WUgdWa4ysbn+qxhf4RYCSu78+SnOjlCbP87vT01x8vwF51bVSi+Lh1Qydj6dIt2LXlwul/ZY21ovWNMpYYPzFpwxC7CaikvHaWouXhOucruYR183hIzowvIme8rl/XTJbg/0dl773JmJnZsaIBnfQNq5hchJ0z2wMqwobQINcYW/WOclt12KZcWOjpg6KQLkYb6jHB0DCA2FwneGMBxJOTO1uuHGkv8R8aQpMtmVTexgoR13rJHp4t7rmKTEB4ZP7yPhDTrSQbepZB0f35et9sbZdoKMupFnmvnnrcCRMUSizHrbHXe0DwQGVhndUdxsyHAGg4gKnWxECvpYhPnpFxrsb1u/yAy/EXnrmjA1YQTkVNkk+1By2eF2NbTczJ3O/SEB82ntmDHl1IskpE1x6UtlH4SnoyMyXKiDEdP7scBMeWcLiwuuUjhQOy0DDVV/NlrKLk4KOeIuEFLUXi4BDVXxdlOdCFpwRoUpRiRJWGnoTUgYaI3IoVgGm60Xdj9+y+M+vM0o+TD1wwX4bRFSHSErusls9fi4+NREOo8Au0emfRiei9ibjzv09noH8W+cnQPOkPZgQ5EBpB1IxoYULcSta5MxT8C3WF9kpCq4hDt/xHYOhsxiKDdaSoJQ1ocfb11QAqJjoWs8t9Wxa26sSgMN2gv9WHW2Zjut5FZi9IaOlM+8EQbhVlnFneYgVlnT/jVWbcJBIEkPKfEV16Htk9PojO2j+3vFzeOYa34zcXHFwQZi7WP4S86zjikqsfey7DmsIybRCD6oy2iGe7hSl5bhIfVA5wRiDuzH2fFouSZbyFHPWfVgpK9Dr0+Git0XOPvP3xYxWMce9+zWAYRSI41Gv2ydsO1ljMn2c91F7lgM7bKsnUcwIr3I419mJ+9Jf5WRp94cPbyCqQpl5qxj4iTO9Qa5+QcpKqUb1l+XVZVfimowJYPfcdUCQIzs/D6zGQxcRY7TscgQq77dZzYvlVsn4XCpxfhu3K7kGBj9pp8dkd83f7E546Sbhx/95oTj/5YNG4Vb3t71DJjrOlSnPrbkFG3O8B1JP37ohHya3xlWm9gY240eJj11wMUiQRE58YJy6HQzyq4svtVFYOY0WcSRfcYZZZU4FafXr8EzFXC6p8JF5UqVVSIkV8yQx2a9srrZIl39FRn97pzgRmxOknXjLH+YtaZsLb86kxYz7LOvEkkAiG+V6W11ucbCIyEgs6Tv0XTyQaxfW8dovvItQvQvzrsPnZDTQ1XRkBMJwkbfmrGOsQlHfsUVs+pRM3TRsylK2Z8wonYsBwUpjWgcvn8buM8fRGR8IzOYpNk4amEgL04kpC/xo2SmUIUxg6yO+PMRtHSQ9g6OdkbX3GNzTDO9ReLBnjjOjBv+Qdwz12PzLHm3mLx1LQiVP68GNkz9KKQYGP2muwJy3hIxava//8MrsboFGcLMm4SnS7dNEbPuK5xBZ7cuRJBGXvenr/4bJLqIHv2et6acpywDrPxlrdc6rjqeRZr8Fy6klJxy7LNJzK1O/eg/3NG8phm3Mo8pj4X6zFl1ltC7hhfecSn6dJLSBhEim7EEwu1OPfz6XvzmqgYlRZU6T4MuE7yPA23qKVsPdVZYMKBwoifSLq14rqrs26uk1FnCKgzXS69jcQQ3/7VgaqzixW43SC2/5vAipcuYfNYog6kbkp3ql4W9Dv1klZju/GzG/aMiIdD+4P3oc+Zp/H1cjPYTwghg8V4IFg+szXfav0MM+x+KDtYRoClQwghQ0g/EgiGnBvHsFkIjlCcYS04EooOIYT0hsou7M7FNxy4gWNr4xGfthnYfhr1w11xBBQdQggZsUzFsn316mHsfcum6mXDm1ET0yGEEDL8oaVDCCHENig6hBBCbIOiQwghxDYoOoQQQmyDokMIIcQ2KDqEEEJsg6JDCCHENig6hBBCbGOIRacGheo1/S4U1ovZukLjFf1FJZDDthkYwxHI5YV2DGHbI7KscliBLLwnB2jS1KjhFhxwvSdf42+eTxZKrhrr7z/y5YPyjbR6sKy63cYbaq1vOB4Uev+DGERMjRIpyhT4mvpQMhTHtB85FILxdumg30bcb0J9n5EHlSEWnUi41OibyXDJ8WLCHFAvdB8nJuV3ULSgdF8SXG/GIeO3tcYAZiEkcrIxkFtyuHwxkxCcsWpWnYMt6DFlBj7+CiEDwHufRfE+I4NiiEVHSIu1cRYNtxr9ZWxEUOPfDAX+4uiEc6LxHRGyE3BiohqQbpYc/bpP5IBlqofa58iP94+odcbQy3a+Bt62Y1rH07F87LGwfEM5z00M9eAdA7vPCOkvQyw6EYhUlk4cXNYbe2L4IHpTkchc60bzKw0o++nckItXxBRjkLQ4p3VkRhfCw/VkqHFGqXMcH9NlaEVBK774XQPG5+ZiUr9GfiT9ZVKBIXLyIweN69yzanS79nq9zwjpPyPghZ8ypmMMzbx1qQf5cuS+OzUo3J+GLR1yKOrT+Gj5PDzcWoLsf34RpWoAZ83MU/Asn69nJMa+XmzPwDvPbgPO5GPLtUo0IxZZc4qx7ydJeFhvKWwE1HzwGnZc/Bhl38gIk7BiRCPeCvG3Py/B884geppyHPO0zajOedeeV5DLXvnqkwg/sBMTj2agCW/gyXVdhz6U8ZAmObiilXS5baKxj1ViHwdXomOVHMY3Do8clPvTfxOXi4SdxhC+gfuRDfPcHkZaDNx2fG43A2SpY+/RwyVL0hEdMKJj/49Zh9oMPVKjQpzHgR2YE+m7jnLMfVVHz13xO67fPnWZHH7HkaNBin1b6sLAGPzrZoOe1XVnviLfKHvXc/KWdXGBvl4ylrMaNy+Yhe9adh+6LHrOr87U/SDK/kb3ddRWvlGPbhpYHkLuHyMwe60ZJcXZXsEplYKj1/Sfs8h/PwkrlOBILuLI+Uxs/8PXak4dY28SFpw/oAVHIgVncNyorjDGMS8uh0w7CDVqiN3YhXhUNHJRqYuBiipc8etiGIFpNTxvmdlzP4hH/Ed7VrS/9TbCDsp1DWJ6o2icRYOohiU+iS90xZgurifVOPk942tszWMex4xG/3HqzQYScuhmc7uDMbi6299c8ztmT/0AFQTfBM9LB7z7UkMUr85AbaD1J4cOXtWIGd7t4nB7kw6m94VfvEM2/kJwZol6sh5zlW9fUami/rqzQOuqhDgKYXnOVAafW03VeU/IOhNipYa71seMTj+BJulaldddWyueK72cTFyMsIoJCR0jS3TuSjFIFVZPK5zhh1AsBMf7I3dmo+SVr+F5xYOmuZl6YU9IAUlGXlqj2L4Np2dKq6MVOz43pKDt9zuQL45xD1nY/2yL2qcnrxJ5gxwEe2pKOtQw5jlLEHo7pxVfnGzwjR+vAsGygbOojhwR8UIsHnlZ9M57PbUGdM5a6e2hdzaI3rDXYmpAx3U92S9aceeS+EpP9etNR60LGCTreiM6RcPrN1qjHH+/G0utd4SwvnNCHK9AWFI+F2jEkpfxyOwxuP12Odr8hFhaI76evhrvvo9zvLLbsCwmpfrK1lb+tlgmhNVSXnVMIdo3j2qVSUjFJFHvt6v8VedKlTDd4ozOwkC4clRYZ7G5mG2xGKPWvaFcq1crWsTcNITFWS60EmOfCN5uFCYZEwVIiBlRolN2KkcJDsK2oiQn20g6CJKMucXY+qNHxZQDrsnWPXlw7vMDoqkCEh/biJxY/RMcF4ZBh2mmLsO++nqbXGufol0Osft93QA5n0C4sGBuf+Jr4AbSuFkb1MH1hnWAWloUAVaLH1Ikx4gGWloGLX6qMDBUPdzrJhbhxKM/FhXS0GhxRQn6WR+3N/mSCEyrzeeyMgQ/UFi9537pik47TkD0S7MDLNA63BKXxdtZ6Dc9/Z0UGtFRaJSqKY4fY04LYbwi1V9Yrp/Ku113BggJMSPQvSZ+Og4XIlWWWPAkz3D1YLe0oeUrY8o1YYBdzWFE26e/Q6fKPDLPUjSyC0XrU/FO/1xFIUS6xKTbSglPT9lf0qopKxDiJoRntfFsymAy8BxRPV3LS7hjee6qv5iJBOo8pCXhV/7r6JBxHMv5mZ/A2FnEEz/2t0Cla01YSDPSrYkp/aD1ino8oHPP6oBjWmNKotwxorxS9O5JYQQeyU33ipCEiQIk1Iwo0clYUIz9E8Tvq30F8k74Hh+9vzgQYT5rgw79bdCuv4c/RtaabAybMnwNUN0euczs2Q4tEUt26riDEUPqPvsrAXN1bMKIZYjzMeMT9w2rMA8cw2Umy3/UIoiGdSFdemZsxe9jTTYIsECvVElXoLCQBlokM7ss1xe38vvIpBATZd0JYYSw6p4QFqW0tLRQ9izOhNwfRpalM86FnGcPIUtMltXmoLAuFI9+RiBuRqqaKmusQvNdMdHegOJ9K7DTmhkXDDJ7LT4e8QUhTiPQLiVrWq/xEQ387DHoPPmpimOoXm+ge0nGeSw949DjxJydWngsPe4uJKzTwjNAy0Q16mO6xE28whxMA++HKP9KQxB91k6gG6039N9XfCIa/jrcOiGum9WV2W+sbrSeiYiKMSakRSXjN6p+zGSGOIQFa+i4CxAv7+21x3BDLyKkO0aee21GNrbNzRI/1bPY8uEa7+tmWk5k4WH1ChoHomtLjYWXF6h59VqaAXTuXT9Yp4QN7WsRt0P8/d4krPnSiR8G/5oEhV3Zaypr7V46pnRpu8w4hsw4u2cEycdYGkuZ/fTqJYwXm4SOOtQGvkpFiaS/a0em79aaLieNsgIGbJmIRv1Fmbm3ye/VMW3lbxlJFN4MsUGQ8FwXayfquVyMb9iDut7iViYqoUA0/LuFEMTmIjqoIpni9WrvzwvphJKmVyu0uBlu19ubZDJE8A+C3rjUaExUb8YBO1IzyYhlRMZ0XIuLsH+y/HUcwYqSQpy5Yyy/bzgzsT+zCCvGGgkGrgmrxXwpCgfhhpHYk71mBrGf7PZZCyOG0ID2/xANk4ybvJGuXFvKBSdThUt3YoZ6En2gyBRh7crTz7j4gu3WWEwC5r4MXDC31dvL516sz+lI99uUqkzfNuLTdOklJMhnSLyXIeCYQlP8jmlqjLaSbr9qxoakq3EWossCMuaCphtrR9bt8QJM6iau0yVNW9TJlMXCGquo6D6BQKVC67/fJINCljiXVcDleR7MBczr6f1YkjG0G07cIN5OiZGhJxhEgsjUZeuQo6cJ6Y0R8HAoIWQk4C6IxwvFKdh+eh+WTdULCQlgRFo6hJBhhrtACA6Qsn07BYf0Ci0dQsggcKMg/gUIvUHOu/Ww4xE0MrKh6BBCCLENutcIIYTYBkWHEEKIbVB0CCGE2AZFhxBCiG1QdAghhNgGRYcQQohtUHQIIYTYBkWHEEKIbVB0CCGE2MYQi04NCtXQAy4U1ovZukJjKIKiEoRqiLYHhtYSZKm6zUHpLTn0Q7ZRt4fP6A1CjDm+iviEevggQsjIYYhFJxKuCfI7Ga4p4ivMATW+4TgxKb9J8DhdMIbFSYBT1K3DYeOIkHKwuheK1bu46uv5Pi5CiI8hFh0hLUJgvIQ7oUawGRuhx/wggyFcf0sipsxU34lC2EONGqwuZTtWU2wIIQEMsehEIFJZOnFwWTviE8O7DmRFBkgkIoWmj5ngElM+XBNCb/Fcu6DGRyWEkC4Mseg4kLrCA88r2zBPzjqzceQVMb9czXmpOSxjEw4UyhEXr1Yi7x9dKg6UuHc/3NZRQ++2oOqD9cgolOsdcBVmIO9EA/6kV5u0XSxF4b5UxKmYh9hPUR5KLloGUDZjS4dPo+WzIqzQ+4uT213y6I007Q0oPbwGqWpfxjHXf1CFlrt6vTduVYiq1ioU7U2ES82Lsp0KiFwFlN/xZirWvGfdl0bsZ/8/ZSBRbWOU/72LgWfpQs7/8ODrDc8b1mNCvqhnD44sflStDcRd8Dji49fi/et86TghJHSMiKENpOikXQa2Pl0Dx6l5yO/QKwTOaaWo/cUifBfNKNmbhhXtLXqNj+SYM6h8fq5y2XnqC/F06RYhBYFsxalX8jFfTkrR+XCLmHCKf63in5UsvPfzQ/iJHLr6jhCU/WnYYimPiTP8EKpeyhYNvhQdsU23+3oK+5eXIUd5vlpQuncestu7jm+fMbdJiIW2V66WIKd4BY4YcxaSsTWzEvnxwbjP3Ch4fDmK791DyrZT2PfsNL08ONQIko3bcXrfMnA8L0KIlSG2dAZGa90R7HIcQkOeB21P56mkg9brbpXp5vnDfrwsBCdxeikafyWtJ7FNTinWjwXONh5AVbvaBRrqduGsnBDb/UlaVWq709g/LQIPqy2stMI1rQQX5P7y3CiaIAfnP4Ld/25YKO6PfmkITngRal4y9tXybBEyxKLW9nyU+I2FLwUnC/ufbRHbNeCQCrh8jNJ6LZK3zuKIEpynUJRt7Mvzqxa40wqR7NURD6pOvixKkIj1aY1oU+VvQ1PaeiSJs9pSXdXFqusfSVjyM/mdgsUplAlCSOgYUaKz65obry0V1sM4wPG9bTirGt18zBXr3J/vUFbEuWuZiPm14eqKKM7Erm/kXx6AW1hKEpdTSoLg2hrM21uIks8a4JkyDzm/WCOa3gDCfoP9v8hEtGz0x8Vh0WPG31ZdbUCbsA6qLp1T83nzxd/qqH1EbA42TJdTrThy0ZornIi8p/cjJ1ZGq1xwWaP8kikuJAuBlEK0oUS66ErhvuVA3I82IH+BGZVxo+aaOkvsOh2DCOVei0D06V1ijeBLNxrkdxAkbfoj6uv34dlpUlgHgxvlctji9BRaOYSQLowo0cHkNcgwkrACaEGztmT6ImLBNpyZk41YIQoX27dgxUdJiPy1C4v+qRJNehsvjnC/DDBvGvc3bcLmEP+UoGUI60ot1TgQpjPyznVY4z8usV1vrq8kbHi+BOsnyAjMxzhwPhvziiOEqAjrqF7vp7UZfzCmhiFy2GL5XE45ltTXYx8HyieEdMPIEp2Jzh6y2swsOCBnfgu+VhaQ/yc/wVgvt036ySGce6UNLdmVODQzA9FCgKquZyL/xBd6m+5p/UoH/idEir2YAnIWzdf1pMKDDh34Tw235o31g5mZ2LFBWF7rG1Azvwg5YTLTrAwbSouMGJTYn0oKQA7eW/N1l3OUVp+KSQ0JSdgkxKa+fgnKhfisPXZDLyeEEB8jS3R6xIHYaYbrq/iz11DSJZPLh/uDNdj/+wto8zgQMSsV2dk7sFnFaoR8BAbx73bAzBFoqyvCls+lE8uJ1Y8liiPGYZ52o+2qLoZbW1ptnxXhtWtyKhlZcwyJ6BetpSg8XIKaq8KqmehC0oI1KErJ0SvPofWW+HLE4ofK9CrGzg9KvMe8H9y/7LUkLBHFrq6oBmWHEBLIKBEdIHLBa3g9TIhHxwG8+P6jKqbj/ex9D2ZOm+erYvzy9FxE6riPY0cc1nwlG9pkbPxeQFTnq7U6rdqByA/zUSkWOcMLkfej74opB1IXvoMsMdXaLuNDeruPtqhEheSZhciZJSb6jQdnL69AmnKpGfuKOLlDrXFOzkGqfGMDIpGZ9rooqRDI6y96j2l+sk60IDjJcKP8X+R3NU5UUyoIIaFj1IgOHEnIX1OLkpmigR7b8wOQ85Y24IM5q/GUd5tYpE7eipJnS/HL2MAguku7s8TU2AysTzgD90vZiNbLMCMbxT+vROHkVLEXA9fYHGyd70bp8nleB1y/cGajaOkhbJ2c7HfM1XMqUfOLRV63oiNeiF92idjOd8zBw+w1Qog9jIjndGzHfE4n/B00vfS83xP9pG/4nA4hpCdGj6VDhg3TZ6foKUII8YeiQ+47U2fFANWbcYBDGhBCAqDokPtP0ibUv5uD4hc4ng4hxB/GdAghhNgGLR1CCCG2QdEhhBBiGxQdQgghtkHRIYQQYhsUHUIIIbZB0SGEEGIbFB1CCCG2QdEhhBBiGxQdQgghtjGqRKfm8MNqXBnXe7VyDoVvyvksvHfVxpcutJYgS41vU2iM9inxLstB6S2g5USWKqfjsHeLEFCH2meewSfP7MYVMddWniemxfzuc8bqIaMV5zfKcpmfjTgfMHbesKBut6WM8mPUI3mwubLbuB/OlPfzpm0txxmxfe25gbdBbeUbLccyf8/D9PcyAEaV6ERONkYPTQ6XY+WIRn2smgXG6e8B44H7txmY/aYLiftK0ftg1r3gdCFOTSTCOUWUzNHzeD+hIiIqRn2Pj5mmvocOJ+bsPI4nj4tPQbpeNsyQgrOpAuNzDxrlVJ91iNKrydBjNMgPUkdgGsJUIzJLjto/ohlVohOmvw2ccE40viMGNJpaaFCjTGsiphjDtCWGhbJg+iaNi8EkYwHpJ1eqKsT/6ZixZIT/usl9J2qd0QmZb8O9ERFlDD3siBpd9+GoEh2zMY9zWoddcyE8PHBE0P7iQNJPy3DhlWacW5uJR/XSgROJSKmIE1x+A8K5Jth4M02LwXjx5fjrPo6p3AHChG95wN8DS7EmISI4K82JiVKDRsF9+YC9ZboFJXuj8WI78PpSD/IT9NIT2YiuLQVmnoJn+XyxRMaD0rDFWG0QfgiNL2V3FZ47DSgt3YFdVytR9Y10tgoLC63i31acfiUf84ytBsSNY2uRtrkaOe/WY1OSXmgH2q2EuFwk7FiCCKnVUoRW7QFyD3bp3ckfT51Y9cjBnZijV0mfd5M0FEzSC/DkOl3RgajjXfL7exO1n0uiHDtFOfQysyyON8owN9HSkTDLbZL+hjhmop4ZON0e24v0rW+CR9ZH1FG/404qOI65fqdqbHtbz4mK7VpXeAMJMe+Iemww6uq5K+ocO8X6rvvrHeN6zEL08edwJ281bl7QP23r9TTpUmfdXafA8htYy9XrdQoov4wr1u25oOeA8bkHxD0VOC6vOGaGOKa3VRJ1dmAH5kTKwndfHh/p4twH5gbtb/nVdpbq6vna9FBnfveseY7Wc3twYPbaYLgjxGl/ErIvF2vBkUjBGQw3UF1RraaKy+0biEYlGshGSDbY8gdo/g6cTyA8Dug8+Sna9CKDVnxxUjaUK72NqGz0bqWaMRDxOZiL8RWb8MnuOmODEKB6jUq4zOMWYNKJVwd8TKP3aQSJVePSsAd1er67wHHnnlXiuBCNnHHchNw43N5kCfLKRl2Lk1kfCbnAzVXPoNZatEvv4ELjSiO+VfE2zrx1EuEHD+KRuDG4XRVMvVWg6ZlVaP/xfl99yHPZ40sg6bbOAq+Tsnj9y6+up149UGSjXbcnxltfcl/YuzqgXnWDvVjcg+Z2x1eiY0eFvvcSMFcvl/VtiIy5nfyELu5mutV6rQNZZ0JM+q4zcR5l8ho34ObqDP/74QGAotMt85D/igce+Vm6FT31QxpOvowtHWIiLA+lOW3G9sv3w0hnCJapSEk3hnvOWWKPmWM0CBdU762rheDEowvFD7zhJL6wtg+tn6JdaM6kVF93L2LJTv/en3MJZshcgYqqEAV869AkLITxufkWS0n8oN8wGvCBuAhl2c2GIlqWWVoHZsMhPl18+Gq9r5GLeGKhaFwa0HFdzrXi/NtSwAv8/i5iycuioQFuv13uE3BRh+HPmZUmZhbqc5E33aUraAvCDyGvo8+CSMAUeT6X/lMfs4c606JniuaVo8LaEuc4+37ELkRjfFVUx6Q3cn2iIO6N2S/NFuJ9FFfMc2y9Ao/4mvSk9SYSZZNWmp4bzqg6i+1vnRkJNdHponOxSXZqWvTy0Q9FJ2iacfbSWTWV8708LJqhkwLC/NMZgmHqsn2or7fDtSYax7wM0bOXZr4w/7t1F8jGciUmiQax/VOf6rR9ehKdoqc5pYe/MZkUI3ukIaKuCrcRh/DvB/zIVfzKFIAQMSvKvyEUjeh8IU6qDrUgd80UNAW80ed+iVuIRy3Fd/QVc+uTOIQFHFb10k33Ub/qrA63hEiMX/jEfWns2z79nb5X/LtvRkblJdxp1arjjIL8Fd1+dST2/s06+/6A6ixqXZmy2jr3rA6pR2A4QdEJmha0SCtHEDtlJPTDuqHuqM/v3ytGb9nnYjNca+NznwtwZ0j3iM8lJT8qVhEi2q40iv8NF4X1mJ/omMhQ03PWkWxo9aTNDEWd3W6U90AFmjIsx5Mfa0xJId1nB/HIbKP3b2z3ACW1DNA6H6lQdATtHe16aiD4ngNqv2t8K6zTw52EddqdZDRCvT3wFpUqVMd0samevOgtP2FtVLU/PsAtZfjeQ4PRUzasNPN41o9fssGwYuieteizzvqwXIPBsHbTEV3W9XhPHt8ZEEh3Ys4OXTYVD5H3Zt6IfyCyJ67szlAdM5lU0bUuRicPnOiYT8acvdoM2adoPrEGPzl/2lg4IOKQpBuOyvNVhgXQWonXSvJRppYGj8xei4+PR4FNeQTS/ZKQK/3rq3p+Y0HCcyrwKV1syrUW4BYy3DaigVkZOv+74aaxYIcbLRh08kXXRAAz+SI1ZAHvPulXnRnPeHU2+m+kYhZ6ujcM16uPLm60/iJdllJ4xnQtr/EMS38sRt8bMPrrsgssf//oqc729rAvo1xNFfcCYnBBcuMY1oo2Iz6+APalHwXHAyY6kUia+ZSaKquNw8NvOhBXW4yvRe/Kj7pC4zU18vPhFiVOaF+BGL3srTq5xIHkH7yOZDF17vIiRMp1/5yJHR0uJJtvQgiKoclei1iyQ2dQvYpPNpZ3E8A24hGdJ4+iSTScXcRFPwdkbWiNBIXg3Guqd2xJXjDSgX3ptgqdqHD71eHWExa99ZWyLjf5NXRt5W/hprAQH/EmDgwB/aozHXuyJBbI+m+6FKeusZXur1PANdcdlpur9/SeUFK3u4u1rQTgXtc4lbrfhBjdPNqHkuj4mqS7bMB+lb9fmHX2TkCdxXapM+UVyFhl3Au9xFIHxLUL0K0Gdh+7oaaGKw+cpeNaugsfTF8E4zHSWGTNLMXp5YVBZZw54vNRPH89nhorRcuJ2PCtKF1ejPXqTQjBYn/2mhfpbpM9S/Uj7NorVRlaDRW43dBNAoHslSrR2uT12V+NOdjVvaZScbW/Xvn0RcOxSs9LsTO2Utlk0ekXvevqTi5EQllBlwfjDCttjG8f5qdb4bQRWZeiPnyxCSnA8hmars8k2U2vdaa3Merfd23qZFr3ywv1Wh9dtpPXSaZg6/UGZqbWCTRZjyc/1uC5qLPZeMtvvaqzsm7qTN5vKkvRd791+8Cltjol1kxLk/6V3xKr1LEv33X1HbPLPSvrbOdKr3fFpK38bdy+J9O976M7LWk1thvNxrDnAXs4lBASNN08NEmGD0P2UPkAYSIBIYSMdG4cw2YhOEJxhrXgSCg6hBAyYrmBY2vjEZ+2Gdh+GvXDXXEEFB1CCBmxTMWyffXqYfJ9y6bqZcMbxnQIIYTYBi0dQgghtkHRIYQQYhsUHUIIIbZB0SGEEGIbFB1CCCG2QdEhhBBiGxQdQgghtkHRIYQQYhujSnRqDj+shh5wvVcr51D4ppzPwntXB/r8q/xbPbSB+dlbgi/0Wi+tJcgK3O5wjV45/Kg57FDDOWSdaDGGa1DL7ledEUJI34wq0YmcbAxQkBwu34MuBMAc12ac/iZdGKo6a3ePx6n138HH5YMafIgQMsIYVaITpr8NnHCqcW2ciAgc0KJP5iH/FQ888rN0K3oc8cKZjSN6u6a5wYzIM/TcvzobGNfLH8KffzcG33boBYSQB4JRJToRU4yh2eKc1qFfXQgPH/3jjgcL64wQYicP3gs/6wrxsDkEtcKJ2AkZ2JCyDWu+183o/ub24YfQ+FI2HtWLA2k5kYXo2jJg5ml4ls/TS320fLYf26qLUPbVRbSKRj158mrkLViDzNgIeP6Qh4iTu+CMqUHz811fTS5jMWmXM3Ao5wiyZ4gFrVXY/2Ehiq5/jIuq/FnY/PRmPB/7XeMPNG3imK9VF+Pjr86iWVox4shyJN2MuU0oWRzZswXXI24UxL+A4pTtOL1vGQb8Ttsb4/FR2kPo2bj5FnPqO/GYmPq8IAzni4HvvtuBv31kPE5veAh3LoheUsq3+JvfdCJaWmLu8Sh9QfSbxLK/3deJR9Q+xuGTx8fiT/fuYfqpv+AHepjjzhvj8O9vPoRbJ4V19Rexn8R7iPyHu/jenG9BBx8h9jGqLJ3gaMXFrw5gw0eZ+M3F0Ohv84kczPtoAw4owVFLcPbLLch+PxOFdR44wl1IFEtbv/Gotf60oLldfrsQOUV8XS1Bzj8vwgYlOBJZ/l148f2foLDe9/fNJ1YgSR1TCo7EEJxB4S6H0AGgugLVdg3D3jEWZ9YagiP5tvohnHt9HFSV9JNvro7H754aixsVhuBIvj03Btd+Og7/x02LjhA7efBEJyEfX5vxGvVpQ82cNLHiLP6lzm1scz+5VYpttUdEg5+I9WlNaJPH/FUTSqdLmTmLLdWlaJnighrGvb1ZSIxhNcmMsrw/SBERYnFHfI11IdzhQdXJl3FE7avR2Jcof1PaeiSpfVXhT2o/ldihjulEVsIZtOQZ51o5XZi2cn2wJC1BjvxOSUdKMEN3TO3E0/UdyBSfOWpHQNj2u2re+BhWjpXO8rG4NeNb/FCs/7u37xk3bPkY3FRr+8MYNOwX1pUQm4m/uYtF6jh/wfwisa8xY/CnQ0LAmKhHiG08kJaOdHWtL0pFnEpzjsC886fV8nMd3Vkag6OtrtKwDibkYcOPIqHi845ILFqwAalyur0K58YZlg7uSGukDecul8k5HPlciqAQjG/E10SXkBA3aq5Je+Ucdp2OQYQuf/TpXWKN4Es3GuRfXKzEAelAHJuHjUvnIkJnooUNOiMtCZvq61EfjGstSO6UAJH/s1O5Nf9L8l/wjBSN2k78V2N1PxCidcSYuvPLcaiMD0Np/HdwZoOweqTYVADXjdWEEBt44ETH/cEizPdzO4UWj0c7tYQ1Y4TsNWFhCFcTQmY8TrjkzDdCYDznUPmlExnhGWi9ehbu1mZhwwjCnYgU03+Q033Qdkuf2UQZxxnh/Pge4mbp6WC4MQb/T08SQoaeB0x03Kg8X4UW6Xaa24A/aRdb09xMvT4EjNO5x9p15qWjQ8clXIgMjzRER8hL8xk3qpCBNT9IReI3ZTh33tguY7KQLLmd3Aw5eG/N19o9aP3kY75Y63BoqbkrDmNMjVxm3NPi3E/ECXfqScVf3cN4NXEPUb833XjWTyceY1iHENt4wETHdJ8Jy8IZrlxdbRdLsO284c4KBZGxi7QbbRd2/b7FKIGnGSUfvibERZRk2iIkioIYD2k24+OLVTgXLgTnh8lYJLYoPV+qtkueESnUJBY/VC1wMXZ+UAJ3D9H0iFnzxDFFS/rVEVRdlj6kNjR8uBYrLsumdzDI7LV4xK89hvuVR9B5YQxu6+mguTQGfxJi882fx+GTF8bijvUkw+7hr1LkxBhc/V/j0fRnKgwhQ8kDljLdhsp9SfjJl60Bja9OJ555Cp7lwlaoK4Tjwy16XVdeX/o1Xk4Yg5YT2YiuLdVLA8nAoZ8fQbbTg5rDi5B2WTnJAsjCoZxilQZtpk1LUhMaULk0XJQ1EplfyiW+dGlPfSEWlW4xXG4B+FKhW1C6dz6y2/1sKySHJeNsx9ngU6bdBYh/QUaoUrD99D4sG0Rgp738OzidF1iCrinTyPkGma8Ik627wnaMw6l5Y/FnnZHm5Tvi8xdfyrTHPR7/+sJDYu9dkYkMTy+TQTNCiB08YJZOBBY9X4rfhMfpWEcycmaWoPbZQjEVKhyYt7wU7rnrkTHWjOrE4qlpRaj8uSE4EjNtWgrgUzPldhFInGm+5UCnSwsc8fmozC7B1smpYi89IcQq5wMUTU7W7rinsDrhDEoXZAxcaKwMNnvNQviSu3j8H+5hnPFwTXCE3UXyu98izCyLfPbm3U78t+f1vMaR1IkfH/8W3/3xPTwkBYkQMmQ8eA+HEkIIGTIeyJRpQgghQwNFhxBCiG1QdAghhNgGRYcQQohtUHQIIYTYBkWHEEKIbVB0CCGE2AZFhxBCiG1QdAghhNgGRYcQQohtUHQIIYTYBkWHEEKIbQyx6OjxWeSnQA24TAghZBQzTN4yLcXnBRTnvIv6TUl6GSGEkNHGMHGvJWH19hSg8dJ9G5GSEELI8GN4xXSqL+CaniSEEDL6YCIBIYQQ26DoEEIIsY1hIzpTZ8XoKUIIIaOV4WPpTJ+NFBRj9zGmEhBCyGhl+IjO1GXYV1+PdRfS1HM7ayk+hBAy6hgmz+kIbhzD2rTNiHm3HnxUhxBCRifDxtK5UV2BauRgCQWHEEJGLcxeI4QQYhsUHUIIIbZB0SGEEGIbFB1CCCG2MUxEx40Dm6uBnCVgHgEhhIxehjhlWg9pICdTtuP0vmWYqpYTQggZjQyf53QIIYSMehjTIYQQYhsUHUIIIbZB0SGEEGIbFB1CCCG2QdEhhBBiGxQdQgghtkHRIYQQYhsUHUIIIbYxcNGRg63Fx3tH9+STpYQQQvpL8G8k0CN9Ytsp7Ht2ml5ICCGE9Ezw7rWpy7AuB/i3hmt6ASGEENI7g4/pNF7CDT1JCCGE9AYTCQghhNgGRYcQQohtDEp0ps9OEf+PMWYIIYSQPhiU6EydFQP822YccIOp04QQQvpkcO61pE344x9PY/bueDweH48Cig8hhJBeGNzIoe4CPL68EdtO7cMyjjNNCCGkDwZl6bjLi4H/vhgpFBxCCCH9gNlrhBBCbIOiQwghxDYoOoQQQmyDokMIIcQ2ghedG8ewW+URpIB5BIQQQvrDwFOm9ZAG1XI651388ZUkjOFLCQghhPSDwT2nQwghhAwAxnQIIYTYBkWHEEKIbVB0CCGE2AZFhxBCiG1QdAghhNgGRYcQQohtUHQIIYTYBPD/AY1JOutPY7SGAAAAAElFTkSuQmCC;imageBorder=default;" vertex="1" parent="1">
          <mxGeometry x="648.5" y="620" width="303" height="165.81" as="geometry" />
        </mxCell>
      </root>
    </mxGraphModel>
  </diagram>
</mxfile>
